%TF.GenerationSoftware,KiCad,Pcbnew,8.0.0*%
%TF.CreationDate,2024-03-05T00:42:56-08:00*%
%TF.ProjectId,DSS-SSR4E,4453532d-5353-4523-9445-2e6b69636164,rev?*%
%TF.SameCoordinates,Original*%
%TF.FileFunction,Copper,L2,Bot*%
%TF.FilePolarity,Positive*%
%FSLAX46Y46*%
G04 Gerber Fmt 4.6, Leading zero omitted, Abs format (unit mm)*
G04 Created by KiCad (PCBNEW 8.0.0) date 2024-03-05 00:42:56*
%MOMM*%
%LPD*%
G01*
G04 APERTURE LIST*
G04 Aperture macros list*
%AMRoundRect*
0 Rectangle with rounded corners*
0 $1 Rounding radius*
0 $2 $3 $4 $5 $6 $7 $8 $9 X,Y pos of 4 corners*
0 Add a 4 corners polygon primitive as box body*
4,1,4,$2,$3,$4,$5,$6,$7,$8,$9,$2,$3,0*
0 Add four circle primitives for the rounded corners*
1,1,$1+$1,$2,$3*
1,1,$1+$1,$4,$5*
1,1,$1+$1,$6,$7*
1,1,$1+$1,$8,$9*
0 Add four rect primitives between the rounded corners*
20,1,$1+$1,$2,$3,$4,$5,0*
20,1,$1+$1,$4,$5,$6,$7,0*
20,1,$1+$1,$6,$7,$8,$9,0*
20,1,$1+$1,$8,$9,$2,$3,0*%
G04 Aperture macros list end*
%TA.AperFunction,ComponentPad*%
%ADD10C,0.800000*%
%TD*%
%TA.AperFunction,ComponentPad*%
%ADD11C,6.400000*%
%TD*%
%TA.AperFunction,ComponentPad*%
%ADD12R,1.700000X1.700000*%
%TD*%
%TA.AperFunction,ComponentPad*%
%ADD13O,1.700000X1.700000*%
%TD*%
%TA.AperFunction,ComponentPad*%
%ADD14RoundRect,0.250000X-0.600000X0.600000X-0.600000X-0.600000X0.600000X-0.600000X0.600000X0.600000X0*%
%TD*%
%TA.AperFunction,ComponentPad*%
%ADD15C,1.700000*%
%TD*%
%TA.AperFunction,ViaPad*%
%ADD16C,0.635000*%
%TD*%
%TA.AperFunction,Conductor*%
%ADD17C,0.406400*%
%TD*%
%TA.AperFunction,Conductor*%
%ADD18C,1.701800*%
%TD*%
%TA.AperFunction,Conductor*%
%ADD19C,0.254000*%
%TD*%
G04 APERTURE END LIST*
D10*
%TO.P,H2,1,1*%
%TO.N,GND*%
X244018200Y-91015000D03*
X245715256Y-91717944D03*
X242321144Y-91717944D03*
X246418200Y-93415000D03*
D11*
X244018200Y-93415000D03*
D10*
X241618200Y-93415000D03*
X245715256Y-95112056D03*
X242321144Y-95112056D03*
X244018200Y-95815000D03*
%TO.P,H2,2,2*%
%TO.N,GND1*%
X244018200Y-116015000D03*
X245715256Y-116717944D03*
X242321144Y-116717944D03*
X246418200Y-118415000D03*
D11*
X244018200Y-118415000D03*
D10*
X241618200Y-118415000D03*
X245715256Y-120112056D03*
X242321144Y-120112056D03*
X244018200Y-120815000D03*
%TD*%
%TO.P,H1,1,1*%
%TO.N,GND*%
X205003800Y-91011800D03*
X206700856Y-91714744D03*
X203306744Y-91714744D03*
X207403800Y-93411800D03*
D11*
X205003800Y-93411800D03*
D10*
X202603800Y-93411800D03*
X206700856Y-95108856D03*
X203306744Y-95108856D03*
X205003800Y-95811800D03*
%TO.P,H1,2,2*%
%TO.N,GND1*%
X205003800Y-116011800D03*
X206700856Y-116714744D03*
X203306744Y-116714744D03*
X207403800Y-118411800D03*
D11*
X205003800Y-118411800D03*
D10*
X202603800Y-118411800D03*
X206700856Y-120108856D03*
X203306744Y-120108856D03*
X205003800Y-120811800D03*
%TD*%
D12*
%TO.P,J2,1,Pin_1*%
%TO.N,/drain00*%
X211811000Y-119704000D03*
D13*
%TO.P,J2,2,Pin_2*%
X211811000Y-122244000D03*
%TO.P,J2,3,Pin_3*%
%TO.N,/source00*%
X214351000Y-119704000D03*
%TO.P,J2,4,Pin_4*%
X214351000Y-122244000D03*
%TO.P,J2,5,Pin_5*%
%TO.N,/drain01*%
X216891000Y-119704000D03*
%TO.P,J2,6,Pin_6*%
X216891000Y-122244000D03*
%TO.P,J2,7,Pin_7*%
%TO.N,/source01*%
X219431000Y-119704000D03*
%TO.P,J2,8,Pin_8*%
X219431000Y-122244000D03*
%TO.P,J2,9,Pin_9*%
%TO.N,/ENC-00_A+*%
X221971000Y-119704000D03*
%TO.P,J2,10,Pin_10*%
%TO.N,/ENC-00_A-*%
X221971000Y-122244000D03*
%TO.P,J2,11,Pin_11*%
%TO.N,/ENC-00_B+*%
X224511000Y-119704000D03*
%TO.P,J2,12,Pin_12*%
%TO.N,/ENC-00_B-*%
X224511000Y-122244000D03*
%TO.P,J2,13,Pin_13*%
%TO.N,/ENC-00_Z+*%
X227051000Y-119704000D03*
%TO.P,J2,14,Pin_14*%
%TO.N,/ENC-00_Z-*%
X227051000Y-122244000D03*
%TO.P,J2,15,Pin_15*%
%TO.N,/source02*%
X229591000Y-119704000D03*
%TO.P,J2,16,Pin_16*%
X229591000Y-122244000D03*
%TO.P,J2,17,Pin_17*%
%TO.N,/drain02*%
X232131000Y-119704000D03*
%TO.P,J2,18,Pin_18*%
X232131000Y-122244000D03*
%TO.P,J2,19,Pin_19*%
%TO.N,/source03*%
X234671000Y-119704000D03*
%TO.P,J2,20,Pin_20*%
X234671000Y-122244000D03*
%TO.P,J2,21,Pin_21*%
%TO.N,/drain03*%
X237211000Y-119704000D03*
%TO.P,J2,22,Pin_22*%
X237211000Y-122244000D03*
%TD*%
D14*
%TO.P,J1,1,Pin_1*%
%TO.N,unconnected-(J1-Pin_1-Pad1)*%
X239751000Y-78911600D03*
D15*
%TO.P,J1,2,Pin_2*%
%TO.N,/sigZ*%
X239751000Y-81451600D03*
%TO.P,J1,3,Pin_3*%
%TO.N,unconnected-(J1-Pin_3-Pad3)*%
X237211000Y-78911600D03*
%TO.P,J1,4,Pin_4*%
%TO.N,/sigB*%
X237211000Y-81451600D03*
%TO.P,J1,5,Pin_5*%
%TO.N,unconnected-(J1-Pin_5-Pad5)*%
X234671000Y-78911600D03*
%TO.P,J1,6,Pin_6*%
%TO.N,/sigA*%
X234671000Y-81451600D03*
%TO.P,J1,7,Pin_7*%
%TO.N,unconnected-(J1-Pin_7-Pad7)*%
X232131000Y-78911600D03*
%TO.P,J1,8,Pin_8*%
%TO.N,/sigref*%
X232131000Y-81451600D03*
%TO.P,J1,9,Pin_9*%
%TO.N,/sig03*%
X229591000Y-78911600D03*
%TO.P,J1,10,Pin_10*%
%TO.N,GND*%
X229591000Y-81451600D03*
%TO.P,J1,11,Pin_11*%
%TO.N,/sig02*%
X227051000Y-78911600D03*
%TO.P,J1,12,Pin_12*%
%TO.N,GND*%
X227051000Y-81451600D03*
%TO.P,J1,13,Pin_13*%
%TO.N,/sig01*%
X224511000Y-78911600D03*
%TO.P,J1,14,Pin_14*%
%TO.N,GND*%
X224511000Y-81451600D03*
%TO.P,J1,15,Pin_15*%
%TO.N,/sig00*%
X221971000Y-78911600D03*
%TO.P,J1,16,Pin_16*%
%TO.N,GND*%
X221971000Y-81451600D03*
%TO.P,J1,17,Pin_17*%
%TO.N,unconnected-(J1-Pin_17-Pad17)*%
X219431000Y-78911600D03*
%TO.P,J1,18,Pin_18*%
%TO.N,+5V*%
X219431000Y-81451600D03*
%TO.P,J1,19,Pin_19*%
%TO.N,unconnected-(J1-Pin_19-Pad19)*%
X216891000Y-78911600D03*
%TO.P,J1,20,Pin_20*%
%TO.N,+5V*%
X216891000Y-81451600D03*
%TO.P,J1,21,Pin_21*%
%TO.N,unconnected-(J1-Pin_21-Pad21)*%
X214351000Y-78911600D03*
%TO.P,J1,22,Pin_22*%
%TO.N,+5V*%
X214351000Y-81451600D03*
%TO.P,J1,23,Pin_23*%
%TO.N,unconnected-(J1-Pin_23-Pad23)*%
X211811000Y-78911600D03*
%TO.P,J1,24,Pin_24*%
%TO.N,+5V*%
X211811000Y-81451600D03*
%TO.P,J1,25,Pin_25*%
%TO.N,unconnected-(J1-Pin_25-Pad25)*%
X209271000Y-78911600D03*
%TO.P,J1,26,Pin_26*%
%TO.N,+5V*%
X209271000Y-81451600D03*
%TD*%
D16*
%TO.N,GND*%
X236385500Y-93122900D03*
X234759900Y-93122900D03*
%TO.N,/out03*%
X231610300Y-92030700D03*
%TO.N,/ref03*%
X231026100Y-91129000D03*
%TO.N,/ref01*%
X222263100Y-90836900D03*
%TO.N,/ref03*%
X234417000Y-89719300D03*
%TO.N,/out03*%
X234455100Y-90786100D03*
%TO.N,/out01*%
X222263100Y-89937470D03*
%TO.N,GND*%
X218516600Y-97402800D03*
X214884400Y-94900900D03*
X212712700Y-94900900D03*
%TO.N,/ref01*%
X219461774Y-92176713D03*
%TO.N,/out01*%
X219917164Y-91442936D03*
%TO.N,GND*%
X230657800Y-96336000D03*
%TO.N,+5V*%
X229210000Y-92513300D03*
%TO.N,GND*%
X226786125Y-94164300D03*
X221336000Y-94608800D03*
X221336000Y-96336000D03*
%TO.N,+5V*%
X218300700Y-94685000D03*
%TO.N,/sigA*%
X222606000Y-96336000D03*
%TO.N,/sigB*%
X223876000Y-96336000D03*
%TO.N,/sigZ*%
X227686000Y-96336000D03*
%TO.N,GND1*%
X225844500Y-109925000D03*
X222860000Y-109925000D03*
X219862800Y-115640000D03*
X225400000Y-115640000D03*
X222860000Y-115640000D03*
%TO.N,/ENC-00_Z+*%
X226416000Y-108782000D03*
%TO.N,/ENC-00_B+*%
X223876000Y-108782000D03*
%TO.N,/ENC-00_A+*%
X220066000Y-108782000D03*
%TO.N,/source00*%
X207493000Y-108070800D03*
%TO.N,/source01*%
X213843000Y-108070800D03*
X218935700Y-116998900D03*
%TO.N,/source00*%
X213855700Y-116998900D03*
X210579100Y-112668700D03*
%TO.N,/source01*%
X217106900Y-112668700D03*
%TO.N,/gate00*%
X208851900Y-111854900D03*
%TO.N,/gate01*%
X215379700Y-111855400D03*
%TO.N,/gate00*%
X210655300Y-109556200D03*
%TO.N,/gate01*%
X217183100Y-109556700D03*
%TO.N,/gate02*%
X234201100Y-110128200D03*
X231800800Y-109505900D03*
X234204457Y-111856750D03*
X233616900Y-114230300D03*
%TO.N,/gate03*%
X238366700Y-109544000D03*
X239636700Y-115068500D03*
X240703500Y-110128200D03*
X240706017Y-111858250D03*
%TD*%
D17*
%TO.N,/sigA*%
X234709100Y-94278600D02*
X229781500Y-94278600D01*
X235547300Y-93440400D02*
X234709100Y-94278600D01*
X234671000Y-87877800D02*
X235547300Y-88754100D01*
X235547300Y-88754100D02*
X235547300Y-93440400D01*
X234671000Y-81451600D02*
X234671000Y-87877800D01*
X229070300Y-94989800D02*
X229730700Y-94329400D01*
%TO.N,/sigB*%
X223876000Y-95929600D02*
X223876000Y-96336000D01*
X224206200Y-95599400D02*
X223876000Y-95929600D01*
X229959300Y-94989800D02*
X229349700Y-95599400D01*
X229349700Y-95599400D02*
X224206200Y-95599400D01*
X236410900Y-94989800D02*
X229959300Y-94989800D01*
X237211000Y-94189700D02*
X236410900Y-94989800D01*
X237211000Y-81451600D02*
X237211000Y-94189700D01*
%TO.N,/sigZ*%
X239751000Y-94773900D02*
X238925500Y-95599400D01*
X239751000Y-81451600D02*
X239751000Y-94773900D01*
X238925500Y-95599400D02*
X230302200Y-95599400D01*
%TO.N,/sigA*%
X223368000Y-94989800D02*
X229070300Y-94989800D01*
X222606000Y-95751800D02*
X223368000Y-94989800D01*
X222606000Y-96336000D02*
X222606000Y-95751800D01*
%TO.N,/sigZ*%
X229565600Y-96336000D02*
X230302200Y-95599400D01*
X227686000Y-96336000D02*
X229565600Y-96336000D01*
%TO.N,/out03*%
X231610300Y-92030700D02*
X232854900Y-90786100D01*
X232854900Y-90786100D02*
X234455100Y-90786100D01*
%TO.N,/ref03*%
X232435800Y-89719300D02*
X234417000Y-89719300D01*
X231026100Y-91129000D02*
X232435800Y-89719300D01*
%TO.N,/ref01*%
X222263100Y-90836900D02*
X220923287Y-92176713D01*
X220923287Y-92176713D02*
X219461774Y-92176713D01*
%TO.N,/out01*%
X219917164Y-91442936D02*
X221422630Y-89937470D01*
X221422630Y-89937470D02*
X222263100Y-89937470D01*
D18*
%TO.N,+5V*%
X229210000Y-90849600D02*
X226504900Y-88144500D01*
X229210000Y-92513300D02*
X229210000Y-90849600D01*
X218402300Y-88144500D02*
X226504900Y-88144500D01*
X218402300Y-88144500D02*
X216891000Y-86633200D01*
X216891000Y-86633200D02*
X216891000Y-86569700D01*
X216891000Y-81451600D02*
X216891000Y-86569700D01*
X216891000Y-86569700D02*
X216891000Y-88728700D01*
X216891000Y-88728700D02*
X216891000Y-90252700D01*
X216903700Y-89643100D02*
X218402300Y-88144500D01*
X216891000Y-90252700D02*
X216891000Y-93275300D01*
X216891000Y-93275300D02*
X218300700Y-94685000D01*
X209271000Y-81451600D02*
X219431000Y-81451600D01*
D17*
%TO.N,/ENC-00_Z+*%
X227051000Y-109417000D02*
X226416000Y-108782000D01*
X227051000Y-119704000D02*
X227051000Y-109417000D01*
%TO.N,/ENC-00_B+*%
X224511000Y-119704000D02*
X224511000Y-109417000D01*
X224511000Y-109417000D02*
X223876000Y-108782000D01*
%TO.N,/ENC-00_A+*%
X221971000Y-110687000D02*
X220066000Y-108782000D01*
X221971000Y-119704000D02*
X221971000Y-110687000D01*
%TO.N,/source00*%
X207493000Y-108070800D02*
X207493000Y-112097200D01*
X207493000Y-112097200D02*
X208064500Y-112668700D01*
X210579100Y-112668700D02*
X208064500Y-112668700D01*
%TO.N,/source01*%
X214376900Y-112668700D02*
X217106900Y-112668700D01*
X213843000Y-112134800D02*
X214376900Y-112668700D01*
X213843000Y-108070800D02*
X213843000Y-112134800D01*
X218935700Y-113163500D02*
X218440900Y-112668700D01*
X218935700Y-116998900D02*
X218935700Y-113163500D01*
X217106900Y-112668700D02*
X218440900Y-112668700D01*
%TO.N,/source00*%
X213855700Y-113176200D02*
X213348200Y-112668700D01*
X213855700Y-116998900D02*
X213855700Y-113176200D01*
X210579100Y-112668700D02*
X213348200Y-112668700D01*
%TO.N,/gate01*%
X215379700Y-111360100D02*
X217183100Y-109556700D01*
X215379700Y-111855400D02*
X215379700Y-111360100D01*
%TO.N,/gate00*%
X208851900Y-111359600D02*
X210655300Y-109556200D01*
X208851900Y-111854900D02*
X208851900Y-111359600D01*
D18*
%TO.N,/source00*%
X214351000Y-119704000D02*
X214351000Y-122244000D01*
%TO.N,/source01*%
X219431000Y-119704000D02*
X219431000Y-122244000D01*
%TO.N,/source02*%
X229591000Y-119704000D02*
X229591000Y-122244000D01*
D17*
%TO.N,/gate02*%
X233616900Y-114230300D02*
X234204457Y-113642743D01*
X234204457Y-113642743D02*
X234204457Y-111856750D01*
D19*
X234201100Y-111853393D02*
X234204457Y-111856750D01*
D17*
X231800800Y-109505900D02*
X233578800Y-109505900D01*
X233578800Y-109505900D02*
X234201100Y-110128200D01*
X234201100Y-110128200D02*
X234201100Y-111853393D01*
%TO.N,/gate03*%
X240703500Y-111855733D02*
X240706017Y-111858250D01*
X240119300Y-109544000D02*
X240703500Y-110128200D01*
X238366700Y-109544000D02*
X240119300Y-109544000D01*
X240703500Y-110128200D02*
X240703500Y-111855733D01*
X239636700Y-115068500D02*
X240703500Y-114001700D01*
X240703500Y-111893500D02*
X240703500Y-114001700D01*
D18*
%TO.N,/source03*%
X234671000Y-119704000D02*
X234671000Y-122244000D01*
%TO.N,/drain00*%
X211811000Y-119704000D02*
X211811000Y-122244000D01*
%TO.N,/drain03*%
X237211000Y-119704000D02*
X237211000Y-122244000D01*
%TO.N,/drain02*%
X232131000Y-119704000D02*
X232131000Y-122244000D01*
%TO.N,/drain01*%
X216891000Y-119704000D02*
X216891000Y-122244000D01*
%TD*%
%TA.AperFunction,Conductor*%
%TO.N,GND1*%
G36*
X248461455Y-106513986D02*
G01*
X248503261Y-106562233D01*
X248513500Y-106609300D01*
X248513500Y-126558297D01*
X248513257Y-126565708D01*
X248496605Y-126819750D01*
X248494671Y-126834442D01*
X248445726Y-127080508D01*
X248441890Y-127094824D01*
X248361248Y-127332386D01*
X248355577Y-127346078D01*
X248244613Y-127571093D01*
X248237202Y-127583928D01*
X248097823Y-127792523D01*
X248088801Y-127804281D01*
X247923383Y-127992904D01*
X247912904Y-128003383D01*
X247724281Y-128168801D01*
X247712523Y-128177823D01*
X247503928Y-128317202D01*
X247491093Y-128324613D01*
X247266078Y-128435577D01*
X247252386Y-128441248D01*
X247014824Y-128521890D01*
X247000508Y-128525726D01*
X246754442Y-128574671D01*
X246739750Y-128576605D01*
X246495625Y-128592606D01*
X246485706Y-128593257D01*
X246478297Y-128593500D01*
X202543703Y-128593500D01*
X202536293Y-128593257D01*
X202525666Y-128592560D01*
X202282249Y-128576605D01*
X202267557Y-128574671D01*
X202021491Y-128525726D01*
X202007175Y-128521890D01*
X201769613Y-128441248D01*
X201755921Y-128435577D01*
X201530906Y-128324613D01*
X201518071Y-128317202D01*
X201309476Y-128177823D01*
X201297718Y-128168801D01*
X201109089Y-128003377D01*
X201098622Y-127992910D01*
X200933195Y-127804278D01*
X200924176Y-127792523D01*
X200784797Y-127583928D01*
X200777386Y-127571093D01*
X200666422Y-127346078D01*
X200660751Y-127332386D01*
X200580109Y-127094824D01*
X200576273Y-127080508D01*
X200527328Y-126834442D01*
X200525394Y-126819749D01*
X200508743Y-126565707D01*
X200508500Y-126558297D01*
X200508500Y-122243999D01*
X210701768Y-122243999D01*
X210705117Y-122280141D01*
X210705600Y-122290594D01*
X210705600Y-122331000D01*
X210715219Y-122391736D01*
X210716130Y-122399003D01*
X210720654Y-122447816D01*
X210720654Y-122447817D01*
X210726569Y-122468608D01*
X210729497Y-122481880D01*
X210732818Y-122502843D01*
X210732820Y-122502854D01*
X210760262Y-122587312D01*
X210761481Y-122591314D01*
X210776671Y-122644699D01*
X210779372Y-122650123D01*
X210785705Y-122665615D01*
X210786585Y-122668323D01*
X210786585Y-122668324D01*
X210867585Y-122827297D01*
X210867552Y-122827313D01*
X210867752Y-122827677D01*
X210867909Y-122827931D01*
X210893442Y-122861742D01*
X210894687Y-122863423D01*
X210932050Y-122914848D01*
X210967848Y-122964120D01*
X210967854Y-122964126D01*
X210974155Y-122970427D01*
X210984451Y-122982258D01*
X210991266Y-122991283D01*
X210991268Y-122991285D01*
X211031718Y-123028160D01*
X211035503Y-123031775D01*
X211090880Y-123087152D01*
X211090887Y-123087157D01*
X211113124Y-123103314D01*
X211122853Y-123111242D01*
X211140107Y-123126970D01*
X211142538Y-123129186D01*
X211180925Y-123152953D01*
X211187848Y-123157603D01*
X211231644Y-123189423D01*
X211273647Y-123210824D01*
X211281821Y-123215426D01*
X211316573Y-123236944D01*
X211316577Y-123236945D01*
X211316578Y-123236946D01*
X211345987Y-123248339D01*
X211356501Y-123253040D01*
X211386664Y-123268410D01*
X211386668Y-123268412D01*
X211386673Y-123268413D01*
X211386674Y-123268414D01*
X211452726Y-123289875D01*
X211458616Y-123291972D01*
X211507444Y-123310888D01*
X211523665Y-123313920D01*
X211537849Y-123317533D01*
X211552152Y-123322181D01*
X211552160Y-123322182D01*
X211552163Y-123322183D01*
X211586633Y-123327642D01*
X211653471Y-123338228D01*
X211656476Y-123338746D01*
X211708653Y-123348500D01*
X211709406Y-123348500D01*
X211719550Y-123349298D01*
X211719570Y-123349051D01*
X211724002Y-123349400D01*
X211724003Y-123349400D01*
X211897998Y-123349400D01*
X211902430Y-123349051D01*
X211902449Y-123349298D01*
X211912594Y-123348500D01*
X211913348Y-123348500D01*
X211937787Y-123343931D01*
X211965477Y-123338754D01*
X211968515Y-123338229D01*
X212069848Y-123322181D01*
X212084154Y-123317532D01*
X212098336Y-123313919D01*
X212114556Y-123310888D01*
X212163412Y-123291960D01*
X212169276Y-123289874D01*
X212235326Y-123268414D01*
X212265515Y-123253030D01*
X212276001Y-123248342D01*
X212305427Y-123236944D01*
X212340158Y-123215439D01*
X212348361Y-123210819D01*
X212390356Y-123189423D01*
X212434163Y-123157593D01*
X212441072Y-123152954D01*
X212479462Y-123129186D01*
X212499151Y-123111236D01*
X212508856Y-123103326D01*
X212531120Y-123087152D01*
X212586514Y-123031756D01*
X212590281Y-123028160D01*
X212630731Y-122991286D01*
X212630732Y-122991285D01*
X212637539Y-122982269D01*
X212647844Y-122970427D01*
X212654152Y-122964120D01*
X212727339Y-122863384D01*
X212728491Y-122861829D01*
X212754088Y-122827935D01*
X212754091Y-122827929D01*
X212754426Y-122827389D01*
X212754380Y-122827366D01*
X212766633Y-122803316D01*
X212835414Y-122668326D01*
X212836295Y-122665615D01*
X212842629Y-122650119D01*
X212845328Y-122644701D01*
X212860540Y-122591231D01*
X212861711Y-122587387D01*
X212889181Y-122502848D01*
X212892502Y-122481880D01*
X212895425Y-122468624D01*
X212901345Y-122447821D01*
X212905869Y-122398988D01*
X212906781Y-122391727D01*
X212916400Y-122330997D01*
X212916400Y-122290594D01*
X212916883Y-122280141D01*
X212916963Y-122279270D01*
X212920232Y-122244000D01*
X212920232Y-122243999D01*
X213241768Y-122243999D01*
X213245117Y-122280141D01*
X213245600Y-122290594D01*
X213245600Y-122331000D01*
X213255219Y-122391736D01*
X213256130Y-122399003D01*
X213260654Y-122447816D01*
X213260654Y-122447817D01*
X213266569Y-122468608D01*
X213269497Y-122481880D01*
X213272818Y-122502843D01*
X213272820Y-122502854D01*
X213300262Y-122587312D01*
X213301481Y-122591314D01*
X213316671Y-122644699D01*
X213319372Y-122650123D01*
X213325705Y-122665615D01*
X213326585Y-122668323D01*
X213326585Y-122668324D01*
X213407585Y-122827297D01*
X213407552Y-122827313D01*
X213407752Y-122827677D01*
X213407909Y-122827931D01*
X213433442Y-122861742D01*
X213434687Y-122863423D01*
X213472050Y-122914848D01*
X213507848Y-122964120D01*
X213507854Y-122964126D01*
X213514155Y-122970427D01*
X213524451Y-122982258D01*
X213531266Y-122991283D01*
X213531268Y-122991285D01*
X213571718Y-123028160D01*
X213575503Y-123031775D01*
X213630880Y-123087152D01*
X213630887Y-123087157D01*
X213653124Y-123103314D01*
X213662853Y-123111242D01*
X213680107Y-123126970D01*
X213682538Y-123129186D01*
X213720925Y-123152953D01*
X213727848Y-123157603D01*
X213771644Y-123189423D01*
X213813647Y-123210824D01*
X213821821Y-123215426D01*
X213856573Y-123236944D01*
X213856577Y-123236945D01*
X213856578Y-123236946D01*
X213885987Y-123248339D01*
X213896501Y-123253040D01*
X213926664Y-123268410D01*
X213926668Y-123268412D01*
X213926673Y-123268413D01*
X213926674Y-123268414D01*
X213992726Y-123289875D01*
X213998616Y-123291972D01*
X214047444Y-123310888D01*
X214063665Y-123313920D01*
X214077849Y-123317533D01*
X214092152Y-123322181D01*
X214092160Y-123322182D01*
X214092163Y-123322183D01*
X214126633Y-123327642D01*
X214193471Y-123338228D01*
X214196476Y-123338746D01*
X214248653Y-123348500D01*
X214249406Y-123348500D01*
X214259550Y-123349298D01*
X214259570Y-123349051D01*
X214264002Y-123349400D01*
X214264003Y-123349400D01*
X214437998Y-123349400D01*
X214442430Y-123349051D01*
X214442449Y-123349298D01*
X214452594Y-123348500D01*
X214453348Y-123348500D01*
X214477787Y-123343931D01*
X214505477Y-123338754D01*
X214508515Y-123338229D01*
X214609848Y-123322181D01*
X214624154Y-123317532D01*
X214638336Y-123313919D01*
X214654556Y-123310888D01*
X214703412Y-123291960D01*
X214709276Y-123289874D01*
X214775326Y-123268414D01*
X214805515Y-123253030D01*
X214816001Y-123248342D01*
X214845427Y-123236944D01*
X214880158Y-123215439D01*
X214888361Y-123210819D01*
X214930356Y-123189423D01*
X214974163Y-123157593D01*
X214981072Y-123152954D01*
X215019462Y-123129186D01*
X215039151Y-123111236D01*
X215048856Y-123103326D01*
X215071120Y-123087152D01*
X215126514Y-123031756D01*
X215130281Y-123028160D01*
X215170731Y-122991286D01*
X215170732Y-122991285D01*
X215177539Y-122982269D01*
X215187844Y-122970427D01*
X215194152Y-122964120D01*
X215267339Y-122863384D01*
X215268491Y-122861829D01*
X215294088Y-122827935D01*
X215294091Y-122827929D01*
X215294426Y-122827389D01*
X215294380Y-122827366D01*
X215306633Y-122803316D01*
X215375414Y-122668326D01*
X215376295Y-122665615D01*
X215382629Y-122650119D01*
X215385328Y-122644701D01*
X215400540Y-122591231D01*
X215401711Y-122587387D01*
X215429181Y-122502848D01*
X215432502Y-122481880D01*
X215435425Y-122468624D01*
X215441345Y-122447821D01*
X215445869Y-122398988D01*
X215446781Y-122391727D01*
X215456400Y-122330997D01*
X215456400Y-122290594D01*
X215456883Y-122280141D01*
X215456963Y-122279270D01*
X215460232Y-122244000D01*
X215460232Y-122243999D01*
X215781768Y-122243999D01*
X215785117Y-122280141D01*
X215785600Y-122290594D01*
X215785600Y-122331000D01*
X215795219Y-122391736D01*
X215796130Y-122399003D01*
X215800654Y-122447816D01*
X215800654Y-122447817D01*
X215806569Y-122468608D01*
X215809497Y-122481880D01*
X215812818Y-122502843D01*
X215812820Y-122502854D01*
X215840262Y-122587312D01*
X215841481Y-122591314D01*
X215856671Y-122644699D01*
X215859372Y-122650123D01*
X215865705Y-122665615D01*
X215866585Y-122668323D01*
X215866585Y-122668324D01*
X215947585Y-122827297D01*
X215947552Y-122827313D01*
X215947752Y-122827677D01*
X215947909Y-122827931D01*
X215973442Y-122861742D01*
X215974687Y-122863423D01*
X216012050Y-122914848D01*
X216047848Y-122964120D01*
X216047854Y-122964126D01*
X216054155Y-122970427D01*
X216064451Y-122982258D01*
X216071266Y-122991283D01*
X216071268Y-122991285D01*
X216111718Y-123028160D01*
X216115503Y-123031775D01*
X216170880Y-123087152D01*
X216170887Y-123087157D01*
X216193124Y-123103314D01*
X216202853Y-123111242D01*
X216220107Y-123126970D01*
X216222538Y-123129186D01*
X216260925Y-123152953D01*
X216267848Y-123157603D01*
X216311644Y-123189423D01*
X216353647Y-123210824D01*
X216361821Y-123215426D01*
X216396573Y-123236944D01*
X216396577Y-123236945D01*
X216396578Y-123236946D01*
X216425987Y-123248339D01*
X216436501Y-123253040D01*
X216466664Y-123268410D01*
X216466668Y-123268412D01*
X216466673Y-123268413D01*
X216466674Y-123268414D01*
X216532726Y-123289875D01*
X216538616Y-123291972D01*
X216587444Y-123310888D01*
X216603665Y-123313920D01*
X216617849Y-123317533D01*
X216632152Y-123322181D01*
X216632160Y-123322182D01*
X216632163Y-123322183D01*
X216666633Y-123327642D01*
X216733471Y-123338228D01*
X216736476Y-123338746D01*
X216788653Y-123348500D01*
X216789406Y-123348500D01*
X216799550Y-123349298D01*
X216799570Y-123349051D01*
X216804002Y-123349400D01*
X216804003Y-123349400D01*
X216977998Y-123349400D01*
X216982430Y-123349051D01*
X216982449Y-123349298D01*
X216992594Y-123348500D01*
X216993348Y-123348500D01*
X217017787Y-123343931D01*
X217045477Y-123338754D01*
X217048515Y-123338229D01*
X217149848Y-123322181D01*
X217164154Y-123317532D01*
X217178336Y-123313919D01*
X217194556Y-123310888D01*
X217243412Y-123291960D01*
X217249276Y-123289874D01*
X217315326Y-123268414D01*
X217345515Y-123253030D01*
X217356001Y-123248342D01*
X217385427Y-123236944D01*
X217420158Y-123215439D01*
X217428361Y-123210819D01*
X217470356Y-123189423D01*
X217514163Y-123157593D01*
X217521072Y-123152954D01*
X217559462Y-123129186D01*
X217579151Y-123111236D01*
X217588856Y-123103326D01*
X217611120Y-123087152D01*
X217666514Y-123031756D01*
X217670281Y-123028160D01*
X217710731Y-122991286D01*
X217710732Y-122991285D01*
X217717539Y-122982269D01*
X217727844Y-122970427D01*
X217734152Y-122964120D01*
X217807339Y-122863384D01*
X217808491Y-122861829D01*
X217834088Y-122827935D01*
X217834091Y-122827929D01*
X217834426Y-122827389D01*
X217834380Y-122827366D01*
X217846633Y-122803316D01*
X217915414Y-122668326D01*
X217916295Y-122665615D01*
X217922629Y-122650119D01*
X217925328Y-122644701D01*
X217940540Y-122591231D01*
X217941711Y-122587387D01*
X217969181Y-122502848D01*
X217972502Y-122481880D01*
X217975425Y-122468624D01*
X217981345Y-122447821D01*
X217985869Y-122398988D01*
X217986781Y-122391727D01*
X217996400Y-122330997D01*
X217996400Y-122290594D01*
X217996883Y-122280141D01*
X217996963Y-122279270D01*
X218000232Y-122244000D01*
X218000232Y-122243999D01*
X218321768Y-122243999D01*
X218325117Y-122280141D01*
X218325600Y-122290594D01*
X218325600Y-122331000D01*
X218335219Y-122391736D01*
X218336130Y-122399003D01*
X218340654Y-122447816D01*
X218340654Y-122447817D01*
X218346569Y-122468608D01*
X218349497Y-122481880D01*
X218352818Y-122502843D01*
X218352820Y-122502854D01*
X218380262Y-122587312D01*
X218381481Y-122591314D01*
X218396671Y-122644699D01*
X218399372Y-122650123D01*
X218405705Y-122665615D01*
X218406585Y-122668323D01*
X218406585Y-122668324D01*
X218487585Y-122827297D01*
X218487552Y-122827313D01*
X218487752Y-122827677D01*
X218487909Y-122827931D01*
X218513442Y-122861742D01*
X218514687Y-122863423D01*
X218552050Y-122914848D01*
X218587848Y-122964120D01*
X218587854Y-122964126D01*
X218594155Y-122970427D01*
X218604451Y-122982258D01*
X218611266Y-122991283D01*
X218611268Y-122991285D01*
X218651718Y-123028160D01*
X218655503Y-123031775D01*
X218710880Y-123087152D01*
X218710887Y-123087157D01*
X218733124Y-123103314D01*
X218742853Y-123111242D01*
X218760107Y-123126970D01*
X218762538Y-123129186D01*
X218800925Y-123152953D01*
X218807848Y-123157603D01*
X218851644Y-123189423D01*
X218893647Y-123210824D01*
X218901821Y-123215426D01*
X218936573Y-123236944D01*
X218936577Y-123236945D01*
X218936578Y-123236946D01*
X218965987Y-123248339D01*
X218976501Y-123253040D01*
X219006664Y-123268410D01*
X219006668Y-123268412D01*
X219006673Y-123268413D01*
X219006674Y-123268414D01*
X219072726Y-123289875D01*
X219078616Y-123291972D01*
X219127444Y-123310888D01*
X219143665Y-123313920D01*
X219157849Y-123317533D01*
X219172152Y-123322181D01*
X219172160Y-123322182D01*
X219172163Y-123322183D01*
X219206633Y-123327642D01*
X219273471Y-123338228D01*
X219276476Y-123338746D01*
X219328653Y-123348500D01*
X219329406Y-123348500D01*
X219339550Y-123349298D01*
X219339570Y-123349051D01*
X219344002Y-123349400D01*
X219344003Y-123349400D01*
X219517998Y-123349400D01*
X219522430Y-123349051D01*
X219522449Y-123349298D01*
X219532594Y-123348500D01*
X219533348Y-123348500D01*
X219557787Y-123343931D01*
X219585477Y-123338754D01*
X219588515Y-123338229D01*
X219689848Y-123322181D01*
X219704154Y-123317532D01*
X219718336Y-123313919D01*
X219734556Y-123310888D01*
X219783412Y-123291960D01*
X219789276Y-123289874D01*
X219855326Y-123268414D01*
X219885515Y-123253030D01*
X219896001Y-123248342D01*
X219925427Y-123236944D01*
X219960158Y-123215439D01*
X219968361Y-123210819D01*
X220010356Y-123189423D01*
X220054163Y-123157593D01*
X220061072Y-123152954D01*
X220099462Y-123129186D01*
X220119151Y-123111236D01*
X220128856Y-123103326D01*
X220151120Y-123087152D01*
X220206514Y-123031756D01*
X220210281Y-123028160D01*
X220250731Y-122991286D01*
X220250732Y-122991285D01*
X220257539Y-122982269D01*
X220267844Y-122970427D01*
X220274152Y-122964120D01*
X220347339Y-122863384D01*
X220348491Y-122861829D01*
X220374088Y-122827935D01*
X220374091Y-122827929D01*
X220374426Y-122827389D01*
X220374380Y-122827366D01*
X220386633Y-122803316D01*
X220455414Y-122668326D01*
X220456295Y-122665615D01*
X220462629Y-122650119D01*
X220465328Y-122644701D01*
X220480540Y-122591231D01*
X220481711Y-122587387D01*
X220509181Y-122502848D01*
X220512502Y-122481880D01*
X220515425Y-122468624D01*
X220521345Y-122447821D01*
X220525869Y-122398988D01*
X220526781Y-122391727D01*
X220536400Y-122330997D01*
X220536400Y-122290594D01*
X220536883Y-122280141D01*
X220536963Y-122279270D01*
X220540232Y-122244000D01*
X220861768Y-122244000D01*
X220880655Y-122447822D01*
X220890350Y-122481897D01*
X220936671Y-122644699D01*
X220936673Y-122644704D01*
X221027909Y-122827929D01*
X221027913Y-122827936D01*
X221151266Y-122991283D01*
X221302534Y-123129183D01*
X221302536Y-123129184D01*
X221302538Y-123129186D01*
X221476573Y-123236944D01*
X221667444Y-123310888D01*
X221868653Y-123348500D01*
X221868656Y-123348500D01*
X222073344Y-123348500D01*
X222073347Y-123348500D01*
X222274556Y-123310888D01*
X222465427Y-123236944D01*
X222639462Y-123129186D01*
X222790732Y-122991285D01*
X222914088Y-122827935D01*
X223005328Y-122644701D01*
X223061345Y-122447821D01*
X223080232Y-122244000D01*
X223401768Y-122244000D01*
X223420655Y-122447822D01*
X223430350Y-122481897D01*
X223476671Y-122644699D01*
X223476673Y-122644704D01*
X223567909Y-122827929D01*
X223567913Y-122827936D01*
X223691266Y-122991283D01*
X223842534Y-123129183D01*
X223842536Y-123129184D01*
X223842538Y-123129186D01*
X224016573Y-123236944D01*
X224207444Y-123310888D01*
X224408653Y-123348500D01*
X224408656Y-123348500D01*
X224613344Y-123348500D01*
X224613347Y-123348500D01*
X224814556Y-123310888D01*
X225005427Y-123236944D01*
X225179462Y-123129186D01*
X225330732Y-122991285D01*
X225454088Y-122827935D01*
X225545328Y-122644701D01*
X225601345Y-122447821D01*
X225620232Y-122244000D01*
X225941768Y-122244000D01*
X225960655Y-122447822D01*
X225970350Y-122481897D01*
X226016671Y-122644699D01*
X226016673Y-122644704D01*
X226107909Y-122827929D01*
X226107913Y-122827936D01*
X226231266Y-122991283D01*
X226382534Y-123129183D01*
X226382536Y-123129184D01*
X226382538Y-123129186D01*
X226556573Y-123236944D01*
X226747444Y-123310888D01*
X226948653Y-123348500D01*
X226948656Y-123348500D01*
X227153344Y-123348500D01*
X227153347Y-123348500D01*
X227354556Y-123310888D01*
X227545427Y-123236944D01*
X227719462Y-123129186D01*
X227870732Y-122991285D01*
X227994088Y-122827935D01*
X228085328Y-122644701D01*
X228141345Y-122447821D01*
X228160232Y-122244000D01*
X228160232Y-122243999D01*
X228481768Y-122243999D01*
X228485117Y-122280141D01*
X228485600Y-122290594D01*
X228485600Y-122331000D01*
X228495219Y-122391736D01*
X228496130Y-122399003D01*
X228500654Y-122447816D01*
X228500654Y-122447817D01*
X228506569Y-122468608D01*
X228509497Y-122481880D01*
X228512818Y-122502843D01*
X228512820Y-122502854D01*
X228540262Y-122587312D01*
X228541481Y-122591314D01*
X228556671Y-122644699D01*
X228559372Y-122650123D01*
X228565705Y-122665615D01*
X228566585Y-122668323D01*
X228566585Y-122668324D01*
X228647585Y-122827297D01*
X228647552Y-122827313D01*
X228647752Y-122827677D01*
X228647909Y-122827931D01*
X228673442Y-122861742D01*
X228674687Y-122863423D01*
X228712050Y-122914848D01*
X228747848Y-122964120D01*
X228747854Y-122964126D01*
X228754155Y-122970427D01*
X228764451Y-122982258D01*
X228771266Y-122991283D01*
X228771268Y-122991285D01*
X228811718Y-123028160D01*
X228815503Y-123031775D01*
X228870880Y-123087152D01*
X228870887Y-123087157D01*
X228893124Y-123103314D01*
X228902853Y-123111242D01*
X228920107Y-123126970D01*
X228922538Y-123129186D01*
X228960925Y-123152953D01*
X228967848Y-123157603D01*
X229011644Y-123189423D01*
X229053647Y-123210824D01*
X229061821Y-123215426D01*
X229096573Y-123236944D01*
X229096577Y-123236945D01*
X229096578Y-123236946D01*
X229125987Y-123248339D01*
X229136501Y-123253040D01*
X229166664Y-123268410D01*
X229166668Y-123268412D01*
X229166673Y-123268413D01*
X229166674Y-123268414D01*
X229232726Y-123289875D01*
X229238616Y-123291972D01*
X229287444Y-123310888D01*
X229303665Y-123313920D01*
X229317849Y-123317533D01*
X229332152Y-123322181D01*
X229332160Y-123322182D01*
X229332163Y-123322183D01*
X229366633Y-123327642D01*
X229433471Y-123338228D01*
X229436476Y-123338746D01*
X229488653Y-123348500D01*
X229489406Y-123348500D01*
X229499550Y-123349298D01*
X229499570Y-123349051D01*
X229504002Y-123349400D01*
X229504003Y-123349400D01*
X229677998Y-123349400D01*
X229682430Y-123349051D01*
X229682449Y-123349298D01*
X229692594Y-123348500D01*
X229693348Y-123348500D01*
X229717787Y-123343931D01*
X229745477Y-123338754D01*
X229748515Y-123338229D01*
X229849848Y-123322181D01*
X229864154Y-123317532D01*
X229878336Y-123313919D01*
X229894556Y-123310888D01*
X229943412Y-123291960D01*
X229949276Y-123289874D01*
X230015326Y-123268414D01*
X230045515Y-123253030D01*
X230056001Y-123248342D01*
X230085427Y-123236944D01*
X230120158Y-123215439D01*
X230128361Y-123210819D01*
X230170356Y-123189423D01*
X230214163Y-123157593D01*
X230221072Y-123152954D01*
X230259462Y-123129186D01*
X230279151Y-123111236D01*
X230288856Y-123103326D01*
X230311120Y-123087152D01*
X230366514Y-123031756D01*
X230370281Y-123028160D01*
X230410731Y-122991286D01*
X230410732Y-122991285D01*
X230417539Y-122982269D01*
X230427844Y-122970427D01*
X230434152Y-122964120D01*
X230507339Y-122863384D01*
X230508491Y-122861829D01*
X230534088Y-122827935D01*
X230534091Y-122827929D01*
X230534426Y-122827389D01*
X230534380Y-122827366D01*
X230546633Y-122803316D01*
X230615414Y-122668326D01*
X230616295Y-122665615D01*
X230622629Y-122650119D01*
X230625328Y-122644701D01*
X230640540Y-122591231D01*
X230641711Y-122587387D01*
X230669181Y-122502848D01*
X230672502Y-122481880D01*
X230675425Y-122468624D01*
X230681345Y-122447821D01*
X230685869Y-122398988D01*
X230686781Y-122391727D01*
X230696400Y-122330997D01*
X230696400Y-122290594D01*
X230696883Y-122280141D01*
X230696963Y-122279270D01*
X230700232Y-122244000D01*
X230700232Y-122243999D01*
X231021768Y-122243999D01*
X231025117Y-122280141D01*
X231025600Y-122290594D01*
X231025600Y-122331000D01*
X231035219Y-122391736D01*
X231036130Y-122399003D01*
X231040654Y-122447816D01*
X231040654Y-122447817D01*
X231046569Y-122468608D01*
X231049497Y-122481880D01*
X231052818Y-122502843D01*
X231052820Y-122502854D01*
X231080262Y-122587312D01*
X231081481Y-122591314D01*
X231096671Y-122644699D01*
X231099372Y-122650123D01*
X231105705Y-122665615D01*
X231106585Y-122668323D01*
X231106585Y-122668324D01*
X231187585Y-122827297D01*
X231187552Y-122827313D01*
X231187752Y-122827677D01*
X231187909Y-122827931D01*
X231213442Y-122861742D01*
X231214687Y-122863423D01*
X231252050Y-122914848D01*
X231287848Y-122964120D01*
X231287854Y-122964126D01*
X231294155Y-122970427D01*
X231304451Y-122982258D01*
X231311266Y-122991283D01*
X231311268Y-122991285D01*
X231351718Y-123028160D01*
X231355503Y-123031775D01*
X231410880Y-123087152D01*
X231410887Y-123087157D01*
X231433124Y-123103314D01*
X231442853Y-123111242D01*
X231460107Y-123126970D01*
X231462538Y-123129186D01*
X231500925Y-123152953D01*
X231507848Y-123157603D01*
X231551644Y-123189423D01*
X231593647Y-123210824D01*
X231601821Y-123215426D01*
X231636573Y-123236944D01*
X231636577Y-123236945D01*
X231636578Y-123236946D01*
X231665987Y-123248339D01*
X231676501Y-123253040D01*
X231706664Y-123268410D01*
X231706668Y-123268412D01*
X231706673Y-123268413D01*
X231706674Y-123268414D01*
X231772726Y-123289875D01*
X231778616Y-123291972D01*
X231827444Y-123310888D01*
X231843665Y-123313920D01*
X231857849Y-123317533D01*
X231872152Y-123322181D01*
X231872160Y-123322182D01*
X231872163Y-123322183D01*
X231906633Y-123327642D01*
X231973471Y-123338228D01*
X231976476Y-123338746D01*
X232028653Y-123348500D01*
X232029406Y-123348500D01*
X232039550Y-123349298D01*
X232039570Y-123349051D01*
X232044002Y-123349400D01*
X232044003Y-123349400D01*
X232217998Y-123349400D01*
X232222430Y-123349051D01*
X232222449Y-123349298D01*
X232232594Y-123348500D01*
X232233348Y-123348500D01*
X232257787Y-123343931D01*
X232285477Y-123338754D01*
X232288515Y-123338229D01*
X232389848Y-123322181D01*
X232404154Y-123317532D01*
X232418336Y-123313919D01*
X232434556Y-123310888D01*
X232483412Y-123291960D01*
X232489276Y-123289874D01*
X232555326Y-123268414D01*
X232585515Y-123253030D01*
X232596001Y-123248342D01*
X232625427Y-123236944D01*
X232660158Y-123215439D01*
X232668361Y-123210819D01*
X232710356Y-123189423D01*
X232754163Y-123157593D01*
X232761072Y-123152954D01*
X232799462Y-123129186D01*
X232819151Y-123111236D01*
X232828856Y-123103326D01*
X232851120Y-123087152D01*
X232906514Y-123031756D01*
X232910281Y-123028160D01*
X232950731Y-122991286D01*
X232950732Y-122991285D01*
X232957539Y-122982269D01*
X232967844Y-122970427D01*
X232974152Y-122964120D01*
X233047339Y-122863384D01*
X233048491Y-122861829D01*
X233074088Y-122827935D01*
X233074091Y-122827929D01*
X233074426Y-122827389D01*
X233074380Y-122827366D01*
X233086633Y-122803316D01*
X233155414Y-122668326D01*
X233156295Y-122665615D01*
X233162629Y-122650119D01*
X233165328Y-122644701D01*
X233180540Y-122591231D01*
X233181711Y-122587387D01*
X233209181Y-122502848D01*
X233212502Y-122481880D01*
X233215425Y-122468624D01*
X233221345Y-122447821D01*
X233225869Y-122398988D01*
X233226781Y-122391727D01*
X233236400Y-122330997D01*
X233236400Y-122290594D01*
X233236883Y-122280141D01*
X233236963Y-122279270D01*
X233240232Y-122244000D01*
X233240232Y-122243999D01*
X233561768Y-122243999D01*
X233565117Y-122280141D01*
X233565600Y-122290594D01*
X233565600Y-122331000D01*
X233575219Y-122391736D01*
X233576130Y-122399003D01*
X233580654Y-122447816D01*
X233580654Y-122447817D01*
X233586569Y-122468608D01*
X233589497Y-122481880D01*
X233592818Y-122502843D01*
X233592820Y-122502854D01*
X233620262Y-122587312D01*
X233621481Y-122591314D01*
X233636671Y-122644699D01*
X233639372Y-122650123D01*
X233645705Y-122665615D01*
X233646585Y-122668323D01*
X233646585Y-122668324D01*
X233727585Y-122827297D01*
X233727552Y-122827313D01*
X233727752Y-122827677D01*
X233727909Y-122827931D01*
X233753442Y-122861742D01*
X233754687Y-122863423D01*
X233792050Y-122914848D01*
X233827848Y-122964120D01*
X233827854Y-122964126D01*
X233834155Y-122970427D01*
X233844451Y-122982258D01*
X233851266Y-122991283D01*
X233851268Y-122991285D01*
X233891718Y-123028160D01*
X233895503Y-123031775D01*
X233950880Y-123087152D01*
X233950887Y-123087157D01*
X233973124Y-123103314D01*
X233982853Y-123111242D01*
X234000107Y-123126970D01*
X234002538Y-123129186D01*
X234040925Y-123152953D01*
X234047848Y-123157603D01*
X234091644Y-123189423D01*
X234133647Y-123210824D01*
X234141821Y-123215426D01*
X234176573Y-123236944D01*
X234176577Y-123236945D01*
X234176578Y-123236946D01*
X234205987Y-123248339D01*
X234216501Y-123253040D01*
X234246664Y-123268410D01*
X234246668Y-123268412D01*
X234246673Y-123268413D01*
X234246674Y-123268414D01*
X234312726Y-123289875D01*
X234318616Y-123291972D01*
X234367444Y-123310888D01*
X234383665Y-123313920D01*
X234397849Y-123317533D01*
X234412152Y-123322181D01*
X234412160Y-123322182D01*
X234412163Y-123322183D01*
X234446633Y-123327642D01*
X234513471Y-123338228D01*
X234516476Y-123338746D01*
X234568653Y-123348500D01*
X234569406Y-123348500D01*
X234579550Y-123349298D01*
X234579570Y-123349051D01*
X234584002Y-123349400D01*
X234584003Y-123349400D01*
X234757998Y-123349400D01*
X234762430Y-123349051D01*
X234762449Y-123349298D01*
X234772594Y-123348500D01*
X234773348Y-123348500D01*
X234797787Y-123343931D01*
X234825477Y-123338754D01*
X234828515Y-123338229D01*
X234929848Y-123322181D01*
X234944154Y-123317532D01*
X234958336Y-123313919D01*
X234974556Y-123310888D01*
X235023412Y-123291960D01*
X235029276Y-123289874D01*
X235095326Y-123268414D01*
X235125515Y-123253030D01*
X235136001Y-123248342D01*
X235165427Y-123236944D01*
X235200158Y-123215439D01*
X235208361Y-123210819D01*
X235250356Y-123189423D01*
X235294163Y-123157593D01*
X235301072Y-123152954D01*
X235339462Y-123129186D01*
X235359151Y-123111236D01*
X235368856Y-123103326D01*
X235391120Y-123087152D01*
X235446514Y-123031756D01*
X235450281Y-123028160D01*
X235490731Y-122991286D01*
X235490732Y-122991285D01*
X235497539Y-122982269D01*
X235507844Y-122970427D01*
X235514152Y-122964120D01*
X235587339Y-122863384D01*
X235588491Y-122861829D01*
X235614088Y-122827935D01*
X235614091Y-122827929D01*
X235614426Y-122827389D01*
X235614380Y-122827366D01*
X235626633Y-122803316D01*
X235695414Y-122668326D01*
X235696295Y-122665615D01*
X235702629Y-122650119D01*
X235705328Y-122644701D01*
X235720540Y-122591231D01*
X235721711Y-122587387D01*
X235749181Y-122502848D01*
X235752502Y-122481880D01*
X235755425Y-122468624D01*
X235761345Y-122447821D01*
X235765869Y-122398988D01*
X235766781Y-122391727D01*
X235776400Y-122330997D01*
X235776400Y-122290594D01*
X235776883Y-122280141D01*
X235776963Y-122279270D01*
X235780232Y-122244000D01*
X235780232Y-122243999D01*
X236101768Y-122243999D01*
X236105117Y-122280141D01*
X236105600Y-122290594D01*
X236105600Y-122331000D01*
X236115219Y-122391736D01*
X236116130Y-122399003D01*
X236120654Y-122447816D01*
X236120654Y-122447817D01*
X236126569Y-122468608D01*
X236129497Y-122481880D01*
X236132818Y-122502843D01*
X236132820Y-122502854D01*
X236160262Y-122587312D01*
X236161481Y-122591314D01*
X236176671Y-122644699D01*
X236179372Y-122650123D01*
X236185705Y-122665615D01*
X236186585Y-122668323D01*
X236186585Y-122668324D01*
X236267585Y-122827297D01*
X236267552Y-122827313D01*
X236267752Y-122827677D01*
X236267909Y-122827931D01*
X236293442Y-122861742D01*
X236294687Y-122863423D01*
X236332050Y-122914848D01*
X236367848Y-122964120D01*
X236367854Y-122964126D01*
X236374155Y-122970427D01*
X236384451Y-122982258D01*
X236391266Y-122991283D01*
X236391268Y-122991285D01*
X236431718Y-123028160D01*
X236435503Y-123031775D01*
X236490880Y-123087152D01*
X236490887Y-123087157D01*
X236513124Y-123103314D01*
X236522853Y-123111242D01*
X236540107Y-123126970D01*
X236542538Y-123129186D01*
X236580925Y-123152953D01*
X236587848Y-123157603D01*
X236631644Y-123189423D01*
X236673647Y-123210824D01*
X236681821Y-123215426D01*
X236716573Y-123236944D01*
X236716577Y-123236945D01*
X236716578Y-123236946D01*
X236745987Y-123248339D01*
X236756501Y-123253040D01*
X236786664Y-123268410D01*
X236786668Y-123268412D01*
X236786673Y-123268413D01*
X236786674Y-123268414D01*
X236852726Y-123289875D01*
X236858616Y-123291972D01*
X236907444Y-123310888D01*
X236923665Y-123313920D01*
X236937849Y-123317533D01*
X236952152Y-123322181D01*
X236952160Y-123322182D01*
X236952163Y-123322183D01*
X236986633Y-123327642D01*
X237053471Y-123338228D01*
X237056476Y-123338746D01*
X237108653Y-123348500D01*
X237109406Y-123348500D01*
X237119550Y-123349298D01*
X237119570Y-123349051D01*
X237124002Y-123349400D01*
X237124003Y-123349400D01*
X237297998Y-123349400D01*
X237302430Y-123349051D01*
X237302449Y-123349298D01*
X237312594Y-123348500D01*
X237313348Y-123348500D01*
X237337787Y-123343931D01*
X237365477Y-123338754D01*
X237368515Y-123338229D01*
X237469848Y-123322181D01*
X237484154Y-123317532D01*
X237498336Y-123313919D01*
X237514556Y-123310888D01*
X237563412Y-123291960D01*
X237569276Y-123289874D01*
X237635326Y-123268414D01*
X237665515Y-123253030D01*
X237676001Y-123248342D01*
X237705427Y-123236944D01*
X237740158Y-123215439D01*
X237748361Y-123210819D01*
X237790356Y-123189423D01*
X237834163Y-123157593D01*
X237841072Y-123152954D01*
X237879462Y-123129186D01*
X237899151Y-123111236D01*
X237908856Y-123103326D01*
X237931120Y-123087152D01*
X237986514Y-123031756D01*
X237990281Y-123028160D01*
X238030731Y-122991286D01*
X238030732Y-122991285D01*
X238037539Y-122982269D01*
X238047844Y-122970427D01*
X238054152Y-122964120D01*
X238127339Y-122863384D01*
X238128491Y-122861829D01*
X238154088Y-122827935D01*
X238154091Y-122827929D01*
X238154426Y-122827389D01*
X238154380Y-122827366D01*
X238166633Y-122803316D01*
X238235414Y-122668326D01*
X238236295Y-122665615D01*
X238242629Y-122650119D01*
X238245328Y-122644701D01*
X238260540Y-122591231D01*
X238261711Y-122587387D01*
X238289181Y-122502848D01*
X238292502Y-122481880D01*
X238295425Y-122468624D01*
X238301345Y-122447821D01*
X238305869Y-122398988D01*
X238306781Y-122391727D01*
X238316400Y-122330997D01*
X238316400Y-122290594D01*
X238316883Y-122280141D01*
X238316963Y-122279270D01*
X238320232Y-122244000D01*
X238316883Y-122207857D01*
X238316400Y-122197404D01*
X238316400Y-119750594D01*
X238316883Y-119740141D01*
X238316963Y-119739270D01*
X238320232Y-119704000D01*
X238316883Y-119667857D01*
X238316400Y-119657404D01*
X238316400Y-119617005D01*
X238315696Y-119612562D01*
X238306779Y-119556262D01*
X238305869Y-119549005D01*
X238301345Y-119500179D01*
X238295430Y-119479391D01*
X238292501Y-119466121D01*
X238289181Y-119445152D01*
X238261720Y-119360638D01*
X238260511Y-119356665D01*
X238245329Y-119303301D01*
X238245316Y-119303276D01*
X238242627Y-119297877D01*
X238236290Y-119282372D01*
X238235414Y-119279674D01*
X238202870Y-119215803D01*
X238154406Y-119120684D01*
X238154438Y-119120667D01*
X238154256Y-119120337D01*
X238154086Y-119120062D01*
X238128557Y-119086257D01*
X238127309Y-119084573D01*
X238054152Y-118983880D01*
X238047845Y-118977573D01*
X238037545Y-118965737D01*
X238030730Y-118956712D01*
X238030728Y-118956710D01*
X237990280Y-118919837D01*
X237986516Y-118916244D01*
X237931120Y-118860848D01*
X237931113Y-118860842D01*
X237908881Y-118844690D01*
X237899148Y-118836760D01*
X237890561Y-118828932D01*
X237879462Y-118818814D01*
X237841096Y-118795059D01*
X237841090Y-118795055D01*
X237834140Y-118790388D01*
X237817732Y-118778467D01*
X237790356Y-118758577D01*
X237748363Y-118737180D01*
X237740158Y-118732560D01*
X237705430Y-118711058D01*
X237705427Y-118711056D01*
X237705425Y-118711055D01*
X237705421Y-118711053D01*
X237676016Y-118699662D01*
X237665509Y-118694964D01*
X237635330Y-118679587D01*
X237635324Y-118679585D01*
X237569298Y-118658131D01*
X237563385Y-118656027D01*
X237514556Y-118637112D01*
X237514548Y-118637110D01*
X237498336Y-118634079D01*
X237484152Y-118630466D01*
X237469845Y-118625818D01*
X237368542Y-118609773D01*
X237365449Y-118609239D01*
X237338524Y-118604206D01*
X237313347Y-118599500D01*
X237313346Y-118599500D01*
X237312594Y-118599500D01*
X237302449Y-118598701D01*
X237302430Y-118598949D01*
X237297998Y-118598600D01*
X237297997Y-118598600D01*
X237124003Y-118598600D01*
X237124002Y-118598600D01*
X237119570Y-118598949D01*
X237119550Y-118598701D01*
X237109406Y-118599500D01*
X237108653Y-118599500D01*
X237083820Y-118604141D01*
X237056550Y-118609239D01*
X237053458Y-118609773D01*
X236952152Y-118625818D01*
X236937846Y-118630466D01*
X236923669Y-118634078D01*
X236907446Y-118637111D01*
X236907444Y-118637111D01*
X236858611Y-118656028D01*
X236852701Y-118658131D01*
X236786675Y-118679585D01*
X236786674Y-118679585D01*
X236756486Y-118694966D01*
X236745984Y-118699661D01*
X236716575Y-118711054D01*
X236681848Y-118732556D01*
X236673645Y-118737175D01*
X236631642Y-118758577D01*
X236587851Y-118790393D01*
X236580903Y-118795059D01*
X236542541Y-118818812D01*
X236542530Y-118818820D01*
X236522855Y-118836756D01*
X236513127Y-118844684D01*
X236490882Y-118860846D01*
X236435501Y-118916226D01*
X236431719Y-118919837D01*
X236391269Y-118956713D01*
X236391268Y-118956714D01*
X236384454Y-118965737D01*
X236374167Y-118977560D01*
X236367846Y-118983882D01*
X236334123Y-119030297D01*
X236294690Y-119084573D01*
X236293475Y-119086213D01*
X236267911Y-119120065D01*
X236267805Y-119120236D01*
X236267532Y-119120739D01*
X236267559Y-119120753D01*
X236186589Y-119279665D01*
X236186584Y-119279677D01*
X236185701Y-119282397D01*
X236179376Y-119297867D01*
X236176673Y-119303294D01*
X236161479Y-119356692D01*
X236160260Y-119360692D01*
X236132819Y-119445150D01*
X236132818Y-119445155D01*
X236129497Y-119466119D01*
X236126568Y-119479396D01*
X236120654Y-119500178D01*
X236116130Y-119548996D01*
X236115219Y-119556262D01*
X236105600Y-119616998D01*
X236105600Y-119657404D01*
X236105117Y-119667857D01*
X236101768Y-119703999D01*
X236105117Y-119740141D01*
X236105600Y-119750594D01*
X236105600Y-122197404D01*
X236105117Y-122207857D01*
X236101768Y-122243999D01*
X235780232Y-122243999D01*
X235776883Y-122207857D01*
X235776400Y-122197404D01*
X235776400Y-119750594D01*
X235776883Y-119740141D01*
X235776963Y-119739270D01*
X235780232Y-119704000D01*
X235776883Y-119667857D01*
X235776400Y-119657404D01*
X235776400Y-119617005D01*
X235775696Y-119612562D01*
X235766779Y-119556262D01*
X235765869Y-119549005D01*
X235761345Y-119500179D01*
X235755430Y-119479391D01*
X235752501Y-119466121D01*
X235749181Y-119445152D01*
X235721720Y-119360638D01*
X235720511Y-119356665D01*
X235705329Y-119303301D01*
X235705316Y-119303276D01*
X235702627Y-119297877D01*
X235696290Y-119282372D01*
X235695414Y-119279674D01*
X235662870Y-119215803D01*
X235614406Y-119120684D01*
X235614438Y-119120667D01*
X235614256Y-119120337D01*
X235614086Y-119120062D01*
X235588557Y-119086257D01*
X235587309Y-119084573D01*
X235514152Y-118983880D01*
X235507845Y-118977573D01*
X235497545Y-118965737D01*
X235490730Y-118956712D01*
X235490728Y-118956710D01*
X235450280Y-118919837D01*
X235446516Y-118916244D01*
X235391120Y-118860848D01*
X235391113Y-118860842D01*
X235368881Y-118844690D01*
X235359148Y-118836760D01*
X235350561Y-118828932D01*
X235339462Y-118818814D01*
X235301096Y-118795059D01*
X235301090Y-118795055D01*
X235294140Y-118790388D01*
X235277732Y-118778467D01*
X235250356Y-118758577D01*
X235208363Y-118737180D01*
X235200158Y-118732560D01*
X235165430Y-118711058D01*
X235165427Y-118711056D01*
X235165425Y-118711055D01*
X235165421Y-118711053D01*
X235136016Y-118699662D01*
X235125509Y-118694964D01*
X235095330Y-118679587D01*
X235095324Y-118679585D01*
X235029298Y-118658131D01*
X235023385Y-118656027D01*
X234974556Y-118637112D01*
X234974548Y-118637110D01*
X234958336Y-118634079D01*
X234944152Y-118630466D01*
X234929845Y-118625818D01*
X234828542Y-118609773D01*
X234825449Y-118609239D01*
X234798524Y-118604206D01*
X234773347Y-118599500D01*
X234773346Y-118599500D01*
X234772594Y-118599500D01*
X234762449Y-118598701D01*
X234762430Y-118598949D01*
X234757998Y-118598600D01*
X234757997Y-118598600D01*
X234584003Y-118598600D01*
X234584002Y-118598600D01*
X234579570Y-118598949D01*
X234579550Y-118598701D01*
X234569406Y-118599500D01*
X234568653Y-118599500D01*
X234543820Y-118604141D01*
X234516550Y-118609239D01*
X234513458Y-118609773D01*
X234412152Y-118625818D01*
X234397846Y-118630466D01*
X234383669Y-118634078D01*
X234367446Y-118637111D01*
X234367444Y-118637111D01*
X234318611Y-118656028D01*
X234312701Y-118658131D01*
X234246675Y-118679585D01*
X234246674Y-118679585D01*
X234216486Y-118694966D01*
X234205984Y-118699661D01*
X234176575Y-118711054D01*
X234141848Y-118732556D01*
X234133645Y-118737175D01*
X234091642Y-118758577D01*
X234047851Y-118790393D01*
X234040903Y-118795059D01*
X234002541Y-118818812D01*
X234002530Y-118818820D01*
X233982855Y-118836756D01*
X233973127Y-118844684D01*
X233950882Y-118860846D01*
X233895501Y-118916226D01*
X233891719Y-118919837D01*
X233851269Y-118956713D01*
X233851268Y-118956714D01*
X233844454Y-118965737D01*
X233834167Y-118977560D01*
X233827846Y-118983882D01*
X233794123Y-119030297D01*
X233754690Y-119084573D01*
X233753475Y-119086213D01*
X233727911Y-119120065D01*
X233727805Y-119120236D01*
X233727532Y-119120739D01*
X233727559Y-119120753D01*
X233646589Y-119279665D01*
X233646584Y-119279677D01*
X233645701Y-119282397D01*
X233639376Y-119297867D01*
X233636673Y-119303294D01*
X233621479Y-119356692D01*
X233620260Y-119360692D01*
X233592819Y-119445150D01*
X233592818Y-119445155D01*
X233589497Y-119466119D01*
X233586568Y-119479396D01*
X233580654Y-119500178D01*
X233576130Y-119548996D01*
X233575219Y-119556262D01*
X233565600Y-119616998D01*
X233565600Y-119657404D01*
X233565117Y-119667857D01*
X233561768Y-119703999D01*
X233565117Y-119740141D01*
X233565600Y-119750594D01*
X233565600Y-122197404D01*
X233565117Y-122207857D01*
X233561768Y-122243999D01*
X233240232Y-122243999D01*
X233236883Y-122207857D01*
X233236400Y-122197404D01*
X233236400Y-119750594D01*
X233236883Y-119740141D01*
X233236963Y-119739270D01*
X233240232Y-119704000D01*
X233236883Y-119667857D01*
X233236400Y-119657404D01*
X233236400Y-119617005D01*
X233235696Y-119612562D01*
X233226779Y-119556262D01*
X233225869Y-119549005D01*
X233221345Y-119500179D01*
X233215430Y-119479391D01*
X233212501Y-119466121D01*
X233209181Y-119445152D01*
X233181720Y-119360638D01*
X233180511Y-119356665D01*
X233165329Y-119303301D01*
X233165316Y-119303276D01*
X233162627Y-119297877D01*
X233156290Y-119282372D01*
X233155414Y-119279674D01*
X233122870Y-119215803D01*
X233074406Y-119120684D01*
X233074438Y-119120667D01*
X233074256Y-119120337D01*
X233074086Y-119120062D01*
X233048557Y-119086257D01*
X233047309Y-119084573D01*
X232974152Y-118983880D01*
X232967845Y-118977573D01*
X232957545Y-118965737D01*
X232950730Y-118956712D01*
X232950728Y-118956710D01*
X232910280Y-118919837D01*
X232906516Y-118916244D01*
X232851120Y-118860848D01*
X232851113Y-118860842D01*
X232828881Y-118844690D01*
X232819148Y-118836760D01*
X232810561Y-118828932D01*
X232799462Y-118818814D01*
X232761096Y-118795059D01*
X232761090Y-118795055D01*
X232754140Y-118790388D01*
X232737732Y-118778467D01*
X232710356Y-118758577D01*
X232668363Y-118737180D01*
X232660158Y-118732560D01*
X232625430Y-118711058D01*
X232625427Y-118711056D01*
X232625425Y-118711055D01*
X232625421Y-118711053D01*
X232596016Y-118699662D01*
X232585509Y-118694964D01*
X232555330Y-118679587D01*
X232555324Y-118679585D01*
X232489298Y-118658131D01*
X232483385Y-118656027D01*
X232434556Y-118637112D01*
X232434548Y-118637110D01*
X232418336Y-118634079D01*
X232404152Y-118630466D01*
X232389845Y-118625818D01*
X232288542Y-118609773D01*
X232285449Y-118609239D01*
X232258524Y-118604206D01*
X232233347Y-118599500D01*
X232233346Y-118599500D01*
X232232594Y-118599500D01*
X232222449Y-118598701D01*
X232222430Y-118598949D01*
X232217998Y-118598600D01*
X232217997Y-118598600D01*
X232044003Y-118598600D01*
X232044002Y-118598600D01*
X232039570Y-118598949D01*
X232039550Y-118598701D01*
X232029406Y-118599500D01*
X232028653Y-118599500D01*
X232003820Y-118604141D01*
X231976550Y-118609239D01*
X231973458Y-118609773D01*
X231872152Y-118625818D01*
X231857846Y-118630466D01*
X231843669Y-118634078D01*
X231827446Y-118637111D01*
X231827444Y-118637111D01*
X231778611Y-118656028D01*
X231772701Y-118658131D01*
X231706675Y-118679585D01*
X231706674Y-118679585D01*
X231676486Y-118694966D01*
X231665984Y-118699661D01*
X231636575Y-118711054D01*
X231601848Y-118732556D01*
X231593645Y-118737175D01*
X231551642Y-118758577D01*
X231507851Y-118790393D01*
X231500903Y-118795059D01*
X231462541Y-118818812D01*
X231462530Y-118818820D01*
X231442855Y-118836756D01*
X231433127Y-118844684D01*
X231410882Y-118860846D01*
X231355501Y-118916226D01*
X231351719Y-118919837D01*
X231311269Y-118956713D01*
X231311268Y-118956714D01*
X231304454Y-118965737D01*
X231294167Y-118977560D01*
X231287846Y-118983882D01*
X231254123Y-119030297D01*
X231214690Y-119084573D01*
X231213475Y-119086213D01*
X231187911Y-119120065D01*
X231187805Y-119120236D01*
X231187532Y-119120739D01*
X231187559Y-119120753D01*
X231106589Y-119279665D01*
X231106584Y-119279677D01*
X231105701Y-119282397D01*
X231099376Y-119297867D01*
X231096673Y-119303294D01*
X231081479Y-119356692D01*
X231080260Y-119360692D01*
X231052819Y-119445150D01*
X231052818Y-119445155D01*
X231049497Y-119466119D01*
X231046568Y-119479396D01*
X231040654Y-119500178D01*
X231036130Y-119548996D01*
X231035219Y-119556262D01*
X231025600Y-119616998D01*
X231025600Y-119657404D01*
X231025117Y-119667857D01*
X231021768Y-119703999D01*
X231025117Y-119740141D01*
X231025600Y-119750594D01*
X231025600Y-122197404D01*
X231025117Y-122207857D01*
X231021768Y-122243999D01*
X230700232Y-122243999D01*
X230696883Y-122207857D01*
X230696400Y-122197404D01*
X230696400Y-119750594D01*
X230696883Y-119740141D01*
X230696963Y-119739270D01*
X230700232Y-119704000D01*
X230696883Y-119667857D01*
X230696400Y-119657404D01*
X230696400Y-119617005D01*
X230695696Y-119612562D01*
X230686779Y-119556262D01*
X230685869Y-119549005D01*
X230681345Y-119500179D01*
X230675430Y-119479391D01*
X230672501Y-119466121D01*
X230669181Y-119445152D01*
X230641720Y-119360638D01*
X230640511Y-119356665D01*
X230625329Y-119303301D01*
X230625316Y-119303276D01*
X230622627Y-119297877D01*
X230616290Y-119282372D01*
X230615414Y-119279674D01*
X230582870Y-119215803D01*
X230534406Y-119120684D01*
X230534438Y-119120667D01*
X230534256Y-119120337D01*
X230534086Y-119120062D01*
X230508557Y-119086257D01*
X230507309Y-119084573D01*
X230434152Y-118983880D01*
X230427845Y-118977573D01*
X230417545Y-118965737D01*
X230410730Y-118956712D01*
X230410728Y-118956710D01*
X230370280Y-118919837D01*
X230366516Y-118916244D01*
X230311120Y-118860848D01*
X230311113Y-118860842D01*
X230288881Y-118844690D01*
X230279148Y-118836760D01*
X230270561Y-118828932D01*
X230259462Y-118818814D01*
X230221096Y-118795059D01*
X230221090Y-118795055D01*
X230214140Y-118790388D01*
X230197732Y-118778467D01*
X230170356Y-118758577D01*
X230128363Y-118737180D01*
X230120158Y-118732560D01*
X230085430Y-118711058D01*
X230085427Y-118711056D01*
X230085425Y-118711055D01*
X230085421Y-118711053D01*
X230056016Y-118699662D01*
X230045509Y-118694964D01*
X230015330Y-118679587D01*
X230015324Y-118679585D01*
X229949298Y-118658131D01*
X229943385Y-118656027D01*
X229894556Y-118637112D01*
X229894548Y-118637110D01*
X229878336Y-118634079D01*
X229864152Y-118630466D01*
X229849845Y-118625818D01*
X229748542Y-118609773D01*
X229745449Y-118609239D01*
X229718524Y-118604206D01*
X229693347Y-118599500D01*
X229693346Y-118599500D01*
X229692594Y-118599500D01*
X229682449Y-118598701D01*
X229682430Y-118598949D01*
X229677998Y-118598600D01*
X229677997Y-118598600D01*
X229504003Y-118598600D01*
X229504002Y-118598600D01*
X229499570Y-118598949D01*
X229499550Y-118598701D01*
X229489406Y-118599500D01*
X229488653Y-118599500D01*
X229463820Y-118604141D01*
X229436550Y-118609239D01*
X229433458Y-118609773D01*
X229332152Y-118625818D01*
X229317846Y-118630466D01*
X229303669Y-118634078D01*
X229287446Y-118637111D01*
X229287444Y-118637111D01*
X229238611Y-118656028D01*
X229232701Y-118658131D01*
X229166675Y-118679585D01*
X229166674Y-118679585D01*
X229136486Y-118694966D01*
X229125984Y-118699661D01*
X229096575Y-118711054D01*
X229061848Y-118732556D01*
X229053645Y-118737175D01*
X229011642Y-118758577D01*
X228967851Y-118790393D01*
X228960903Y-118795059D01*
X228922541Y-118818812D01*
X228922530Y-118818820D01*
X228902855Y-118836756D01*
X228893127Y-118844684D01*
X228870882Y-118860846D01*
X228815501Y-118916226D01*
X228811719Y-118919837D01*
X228771269Y-118956713D01*
X228771268Y-118956714D01*
X228764454Y-118965737D01*
X228754167Y-118977560D01*
X228747846Y-118983882D01*
X228714123Y-119030297D01*
X228674690Y-119084573D01*
X228673475Y-119086213D01*
X228647911Y-119120065D01*
X228647805Y-119120236D01*
X228647532Y-119120739D01*
X228647559Y-119120753D01*
X228566589Y-119279665D01*
X228566584Y-119279677D01*
X228565701Y-119282397D01*
X228559376Y-119297867D01*
X228556673Y-119303294D01*
X228541479Y-119356692D01*
X228540260Y-119360692D01*
X228512819Y-119445150D01*
X228512818Y-119445155D01*
X228509497Y-119466119D01*
X228506568Y-119479396D01*
X228500654Y-119500178D01*
X228496130Y-119548996D01*
X228495219Y-119556262D01*
X228485600Y-119616998D01*
X228485600Y-119657404D01*
X228485117Y-119667857D01*
X228481768Y-119703999D01*
X228485117Y-119740141D01*
X228485600Y-119750594D01*
X228485600Y-122197404D01*
X228485117Y-122207857D01*
X228481768Y-122243999D01*
X228160232Y-122243999D01*
X228141345Y-122040179D01*
X228085328Y-121843299D01*
X227994088Y-121660065D01*
X227870732Y-121496715D01*
X227854493Y-121481911D01*
X227719465Y-121358816D01*
X227719462Y-121358814D01*
X227545427Y-121251056D01*
X227545423Y-121251054D01*
X227545421Y-121251053D01*
X227354556Y-121177112D01*
X227153347Y-121139500D01*
X226948653Y-121139500D01*
X226797746Y-121167709D01*
X226747443Y-121177112D01*
X226556578Y-121251053D01*
X226556575Y-121251055D01*
X226382534Y-121358816D01*
X226231266Y-121496716D01*
X226107913Y-121660063D01*
X226107909Y-121660070D01*
X226016673Y-121843295D01*
X225960655Y-122040177D01*
X225941768Y-122244000D01*
X225620232Y-122244000D01*
X225601345Y-122040179D01*
X225545328Y-121843299D01*
X225454088Y-121660065D01*
X225330732Y-121496715D01*
X225314493Y-121481911D01*
X225179465Y-121358816D01*
X225179462Y-121358814D01*
X225005427Y-121251056D01*
X225005423Y-121251054D01*
X225005421Y-121251053D01*
X224814556Y-121177112D01*
X224613347Y-121139500D01*
X224408653Y-121139500D01*
X224257746Y-121167709D01*
X224207443Y-121177112D01*
X224016578Y-121251053D01*
X224016575Y-121251055D01*
X223842534Y-121358816D01*
X223691266Y-121496716D01*
X223567913Y-121660063D01*
X223567909Y-121660070D01*
X223476673Y-121843295D01*
X223420655Y-122040177D01*
X223401768Y-122244000D01*
X223080232Y-122244000D01*
X223061345Y-122040179D01*
X223005328Y-121843299D01*
X222914088Y-121660065D01*
X222790732Y-121496715D01*
X222774493Y-121481911D01*
X222639465Y-121358816D01*
X222639462Y-121358814D01*
X222465427Y-121251056D01*
X222465423Y-121251054D01*
X222465421Y-121251053D01*
X222274556Y-121177112D01*
X222073347Y-121139500D01*
X221868653Y-121139500D01*
X221717746Y-121167709D01*
X221667443Y-121177112D01*
X221476578Y-121251053D01*
X221476575Y-121251055D01*
X221302534Y-121358816D01*
X221151266Y-121496716D01*
X221027913Y-121660063D01*
X221027909Y-121660070D01*
X220936673Y-121843295D01*
X220880655Y-122040177D01*
X220861768Y-122244000D01*
X220540232Y-122244000D01*
X220536883Y-122207857D01*
X220536400Y-122197404D01*
X220536400Y-119750594D01*
X220536883Y-119740141D01*
X220536963Y-119739270D01*
X220540232Y-119704000D01*
X220536883Y-119667857D01*
X220536400Y-119657404D01*
X220536400Y-119617005D01*
X220535696Y-119612562D01*
X220526779Y-119556262D01*
X220525869Y-119549005D01*
X220521345Y-119500179D01*
X220515430Y-119479391D01*
X220512501Y-119466121D01*
X220509181Y-119445152D01*
X220481720Y-119360638D01*
X220480511Y-119356665D01*
X220465329Y-119303301D01*
X220465316Y-119303276D01*
X220462627Y-119297877D01*
X220456290Y-119282372D01*
X220455414Y-119279674D01*
X220422870Y-119215803D01*
X220374406Y-119120684D01*
X220374438Y-119120667D01*
X220374256Y-119120337D01*
X220374086Y-119120062D01*
X220348557Y-119086257D01*
X220347309Y-119084573D01*
X220274152Y-118983880D01*
X220267845Y-118977573D01*
X220257545Y-118965737D01*
X220250730Y-118956712D01*
X220250728Y-118956710D01*
X220210280Y-118919837D01*
X220206516Y-118916244D01*
X220151120Y-118860848D01*
X220151113Y-118860842D01*
X220128881Y-118844690D01*
X220119148Y-118836760D01*
X220110561Y-118828932D01*
X220099462Y-118818814D01*
X220061096Y-118795059D01*
X220061090Y-118795055D01*
X220054140Y-118790388D01*
X220037732Y-118778467D01*
X220010356Y-118758577D01*
X219968363Y-118737180D01*
X219960158Y-118732560D01*
X219925430Y-118711058D01*
X219925427Y-118711056D01*
X219925425Y-118711055D01*
X219925421Y-118711053D01*
X219896016Y-118699662D01*
X219885509Y-118694964D01*
X219855330Y-118679587D01*
X219855324Y-118679585D01*
X219789298Y-118658131D01*
X219783385Y-118656027D01*
X219734556Y-118637112D01*
X219734548Y-118637110D01*
X219718336Y-118634079D01*
X219704152Y-118630466D01*
X219689845Y-118625818D01*
X219588542Y-118609773D01*
X219585449Y-118609239D01*
X219558524Y-118604206D01*
X219533347Y-118599500D01*
X219533346Y-118599500D01*
X219532594Y-118599500D01*
X219522449Y-118598701D01*
X219522430Y-118598949D01*
X219517998Y-118598600D01*
X219517997Y-118598600D01*
X219344003Y-118598600D01*
X219344002Y-118598600D01*
X219339570Y-118598949D01*
X219339550Y-118598701D01*
X219329406Y-118599500D01*
X219328653Y-118599500D01*
X219303820Y-118604141D01*
X219276550Y-118609239D01*
X219273458Y-118609773D01*
X219172152Y-118625818D01*
X219157846Y-118630466D01*
X219143669Y-118634078D01*
X219127446Y-118637111D01*
X219127444Y-118637111D01*
X219078611Y-118656028D01*
X219072701Y-118658131D01*
X219006675Y-118679585D01*
X219006674Y-118679585D01*
X218976486Y-118694966D01*
X218965984Y-118699661D01*
X218936575Y-118711054D01*
X218901848Y-118732556D01*
X218893645Y-118737175D01*
X218851642Y-118758577D01*
X218807851Y-118790393D01*
X218800903Y-118795059D01*
X218762541Y-118818812D01*
X218762530Y-118818820D01*
X218742855Y-118836756D01*
X218733127Y-118844684D01*
X218710882Y-118860846D01*
X218655501Y-118916226D01*
X218651719Y-118919837D01*
X218611269Y-118956713D01*
X218611268Y-118956714D01*
X218604454Y-118965737D01*
X218594167Y-118977560D01*
X218587846Y-118983882D01*
X218554123Y-119030297D01*
X218514690Y-119084573D01*
X218513475Y-119086213D01*
X218487911Y-119120065D01*
X218487805Y-119120236D01*
X218487532Y-119120739D01*
X218487559Y-119120753D01*
X218406589Y-119279665D01*
X218406584Y-119279677D01*
X218405701Y-119282397D01*
X218399376Y-119297867D01*
X218396673Y-119303294D01*
X218381479Y-119356692D01*
X218380260Y-119360692D01*
X218352819Y-119445150D01*
X218352818Y-119445155D01*
X218349497Y-119466119D01*
X218346568Y-119479396D01*
X218340654Y-119500178D01*
X218336130Y-119548996D01*
X218335219Y-119556262D01*
X218325600Y-119616998D01*
X218325600Y-119657404D01*
X218325117Y-119667857D01*
X218321768Y-119703999D01*
X218325117Y-119740141D01*
X218325600Y-119750594D01*
X218325600Y-122197404D01*
X218325117Y-122207857D01*
X218321768Y-122243999D01*
X218000232Y-122243999D01*
X217996883Y-122207857D01*
X217996400Y-122197404D01*
X217996400Y-119750594D01*
X217996883Y-119740141D01*
X217996963Y-119739270D01*
X218000232Y-119704000D01*
X217996883Y-119667857D01*
X217996400Y-119657404D01*
X217996400Y-119617005D01*
X217995696Y-119612562D01*
X217986779Y-119556262D01*
X217985869Y-119549005D01*
X217981345Y-119500179D01*
X217975430Y-119479391D01*
X217972501Y-119466121D01*
X217969181Y-119445152D01*
X217941720Y-119360638D01*
X217940511Y-119356665D01*
X217925329Y-119303301D01*
X217925316Y-119303276D01*
X217922627Y-119297877D01*
X217916290Y-119282372D01*
X217915414Y-119279674D01*
X217882870Y-119215803D01*
X217834406Y-119120684D01*
X217834438Y-119120667D01*
X217834256Y-119120337D01*
X217834086Y-119120062D01*
X217808557Y-119086257D01*
X217807309Y-119084573D01*
X217734152Y-118983880D01*
X217727845Y-118977573D01*
X217717545Y-118965737D01*
X217710730Y-118956712D01*
X217710728Y-118956710D01*
X217670280Y-118919837D01*
X217666516Y-118916244D01*
X217611120Y-118860848D01*
X217611113Y-118860842D01*
X217588881Y-118844690D01*
X217579148Y-118836760D01*
X217570561Y-118828932D01*
X217559462Y-118818814D01*
X217521096Y-118795059D01*
X217521090Y-118795055D01*
X217514140Y-118790388D01*
X217497732Y-118778467D01*
X217470356Y-118758577D01*
X217428363Y-118737180D01*
X217420158Y-118732560D01*
X217385430Y-118711058D01*
X217385427Y-118711056D01*
X217385425Y-118711055D01*
X217385421Y-118711053D01*
X217356016Y-118699662D01*
X217345509Y-118694964D01*
X217315330Y-118679587D01*
X217315324Y-118679585D01*
X217249298Y-118658131D01*
X217243385Y-118656027D01*
X217194556Y-118637112D01*
X217194548Y-118637110D01*
X217178336Y-118634079D01*
X217164152Y-118630466D01*
X217149845Y-118625818D01*
X217048542Y-118609773D01*
X217045449Y-118609239D01*
X217018524Y-118604206D01*
X216993347Y-118599500D01*
X216993346Y-118599500D01*
X216992594Y-118599500D01*
X216982449Y-118598701D01*
X216982430Y-118598949D01*
X216977998Y-118598600D01*
X216977997Y-118598600D01*
X216804003Y-118598600D01*
X216804002Y-118598600D01*
X216799570Y-118598949D01*
X216799550Y-118598701D01*
X216789406Y-118599500D01*
X216788653Y-118599500D01*
X216763820Y-118604141D01*
X216736550Y-118609239D01*
X216733458Y-118609773D01*
X216632152Y-118625818D01*
X216617846Y-118630466D01*
X216603669Y-118634078D01*
X216587446Y-118637111D01*
X216587444Y-118637111D01*
X216538611Y-118656028D01*
X216532701Y-118658131D01*
X216466675Y-118679585D01*
X216466674Y-118679585D01*
X216436486Y-118694966D01*
X216425984Y-118699661D01*
X216396575Y-118711054D01*
X216361848Y-118732556D01*
X216353645Y-118737175D01*
X216311642Y-118758577D01*
X216267851Y-118790393D01*
X216260903Y-118795059D01*
X216222541Y-118818812D01*
X216222530Y-118818820D01*
X216202855Y-118836756D01*
X216193127Y-118844684D01*
X216170882Y-118860846D01*
X216115501Y-118916226D01*
X216111719Y-118919837D01*
X216071269Y-118956713D01*
X216071268Y-118956714D01*
X216064454Y-118965737D01*
X216054167Y-118977560D01*
X216047846Y-118983882D01*
X216014123Y-119030297D01*
X215974690Y-119084573D01*
X215973475Y-119086213D01*
X215947911Y-119120065D01*
X215947805Y-119120236D01*
X215947532Y-119120739D01*
X215947559Y-119120753D01*
X215866589Y-119279665D01*
X215866584Y-119279677D01*
X215865701Y-119282397D01*
X215859376Y-119297867D01*
X215856673Y-119303294D01*
X215841479Y-119356692D01*
X215840260Y-119360692D01*
X215812819Y-119445150D01*
X215812818Y-119445155D01*
X215809497Y-119466119D01*
X215806568Y-119479396D01*
X215800654Y-119500178D01*
X215796130Y-119548996D01*
X215795219Y-119556262D01*
X215785600Y-119616998D01*
X215785600Y-119657404D01*
X215785117Y-119667857D01*
X215781768Y-119703999D01*
X215785117Y-119740141D01*
X215785600Y-119750594D01*
X215785600Y-122197404D01*
X215785117Y-122207857D01*
X215781768Y-122243999D01*
X215460232Y-122243999D01*
X215456883Y-122207857D01*
X215456400Y-122197404D01*
X215456400Y-119750594D01*
X215456883Y-119740141D01*
X215456963Y-119739270D01*
X215460232Y-119704000D01*
X215456883Y-119667857D01*
X215456400Y-119657404D01*
X215456400Y-119617005D01*
X215455696Y-119612562D01*
X215446779Y-119556262D01*
X215445869Y-119549005D01*
X215441345Y-119500179D01*
X215435430Y-119479391D01*
X215432501Y-119466121D01*
X215429181Y-119445152D01*
X215401720Y-119360638D01*
X215400511Y-119356665D01*
X215385329Y-119303301D01*
X215385316Y-119303276D01*
X215382627Y-119297877D01*
X215376290Y-119282372D01*
X215375414Y-119279674D01*
X215342870Y-119215803D01*
X215294406Y-119120684D01*
X215294438Y-119120667D01*
X215294256Y-119120337D01*
X215294086Y-119120062D01*
X215268557Y-119086257D01*
X215267309Y-119084573D01*
X215194152Y-118983880D01*
X215187845Y-118977573D01*
X215177545Y-118965737D01*
X215170730Y-118956712D01*
X215170728Y-118956710D01*
X215130280Y-118919837D01*
X215126516Y-118916244D01*
X215071120Y-118860848D01*
X215071113Y-118860842D01*
X215048881Y-118844690D01*
X215039148Y-118836760D01*
X215030561Y-118828932D01*
X215019462Y-118818814D01*
X214981096Y-118795059D01*
X214981090Y-118795055D01*
X214974140Y-118790388D01*
X214957732Y-118778467D01*
X214930356Y-118758577D01*
X214888363Y-118737180D01*
X214880158Y-118732560D01*
X214845430Y-118711058D01*
X214845427Y-118711056D01*
X214845425Y-118711055D01*
X214845421Y-118711053D01*
X214816016Y-118699662D01*
X214805509Y-118694964D01*
X214775330Y-118679587D01*
X214775324Y-118679585D01*
X214709298Y-118658131D01*
X214703385Y-118656027D01*
X214654556Y-118637112D01*
X214654548Y-118637110D01*
X214638336Y-118634079D01*
X214624152Y-118630466D01*
X214609845Y-118625818D01*
X214508542Y-118609773D01*
X214505449Y-118609239D01*
X214478524Y-118604206D01*
X214453347Y-118599500D01*
X214453346Y-118599500D01*
X214452594Y-118599500D01*
X214442449Y-118598701D01*
X214442430Y-118598949D01*
X214437998Y-118598600D01*
X214437997Y-118598600D01*
X214264003Y-118598600D01*
X214264002Y-118598600D01*
X214259570Y-118598949D01*
X214259550Y-118598701D01*
X214249406Y-118599500D01*
X214248653Y-118599500D01*
X214223820Y-118604141D01*
X214196550Y-118609239D01*
X214193458Y-118609773D01*
X214092152Y-118625818D01*
X214077846Y-118630466D01*
X214063669Y-118634078D01*
X214047446Y-118637111D01*
X214047444Y-118637111D01*
X213998611Y-118656028D01*
X213992701Y-118658131D01*
X213926675Y-118679585D01*
X213926674Y-118679585D01*
X213896486Y-118694966D01*
X213885984Y-118699661D01*
X213856575Y-118711054D01*
X213821848Y-118732556D01*
X213813645Y-118737175D01*
X213771642Y-118758577D01*
X213727851Y-118790393D01*
X213720903Y-118795059D01*
X213682541Y-118818812D01*
X213682530Y-118818820D01*
X213662855Y-118836756D01*
X213653127Y-118844684D01*
X213630882Y-118860846D01*
X213575501Y-118916226D01*
X213571719Y-118919837D01*
X213531269Y-118956713D01*
X213531268Y-118956714D01*
X213524454Y-118965737D01*
X213514167Y-118977560D01*
X213507846Y-118983882D01*
X213474123Y-119030297D01*
X213434690Y-119084573D01*
X213433475Y-119086213D01*
X213407911Y-119120065D01*
X213407805Y-119120236D01*
X213407532Y-119120739D01*
X213407559Y-119120753D01*
X213326589Y-119279665D01*
X213326584Y-119279677D01*
X213325701Y-119282397D01*
X213319376Y-119297867D01*
X213316673Y-119303294D01*
X213301479Y-119356692D01*
X213300260Y-119360692D01*
X213272819Y-119445150D01*
X213272818Y-119445155D01*
X213269497Y-119466119D01*
X213266568Y-119479396D01*
X213260654Y-119500178D01*
X213256130Y-119548996D01*
X213255219Y-119556262D01*
X213245600Y-119616998D01*
X213245600Y-119657404D01*
X213245117Y-119667857D01*
X213241768Y-119703999D01*
X213245117Y-119740141D01*
X213245600Y-119750594D01*
X213245600Y-122197404D01*
X213245117Y-122207857D01*
X213241768Y-122243999D01*
X212920232Y-122243999D01*
X212916883Y-122207857D01*
X212916400Y-122197404D01*
X212916400Y-119617007D01*
X212916050Y-119612562D01*
X212916298Y-119612542D01*
X212915499Y-119602395D01*
X212915499Y-118828932D01*
X212908761Y-118795059D01*
X212900734Y-118754699D01*
X212889025Y-118737175D01*
X212844485Y-118670516D01*
X212844483Y-118670514D01*
X212760305Y-118614268D01*
X212760299Y-118614265D01*
X212686070Y-118599500D01*
X212686067Y-118599500D01*
X211912594Y-118599500D01*
X211902450Y-118598701D01*
X211902431Y-118598949D01*
X211897998Y-118598600D01*
X211897997Y-118598600D01*
X211724003Y-118598600D01*
X211723999Y-118598600D01*
X211719572Y-118598949D01*
X211719552Y-118598702D01*
X211709407Y-118599500D01*
X210935932Y-118599500D01*
X210861698Y-118614266D01*
X210861697Y-118614266D01*
X210777516Y-118670514D01*
X210777514Y-118670516D01*
X210721268Y-118754694D01*
X210721265Y-118754700D01*
X210706500Y-118828929D01*
X210706500Y-119602407D01*
X210705702Y-119612552D01*
X210705949Y-119612572D01*
X210705600Y-119617007D01*
X210705600Y-122197404D01*
X210705117Y-122207857D01*
X210701768Y-122243999D01*
X200508500Y-122243999D01*
X200508500Y-108070800D01*
X206916064Y-108070800D01*
X206935723Y-108220122D01*
X206993359Y-108359268D01*
X207004698Y-108374045D01*
X207011886Y-108383412D01*
X207034907Y-108442958D01*
X207035300Y-108452386D01*
X207035300Y-112157457D01*
X207066491Y-112273865D01*
X207066492Y-112273866D01*
X207126749Y-112378235D01*
X207783465Y-113034951D01*
X207887834Y-113095208D01*
X208004242Y-113126400D01*
X208004243Y-113126400D01*
X210197513Y-113126400D01*
X210258768Y-113144386D01*
X210266485Y-113149813D01*
X210290629Y-113168339D01*
X210290632Y-113168341D01*
X210429778Y-113225977D01*
X210579100Y-113245636D01*
X210728422Y-113225977D01*
X210867568Y-113168341D01*
X210878979Y-113159585D01*
X210891715Y-113149813D01*
X210951261Y-113126793D01*
X210960687Y-113126400D01*
X213111684Y-113126400D01*
X213172939Y-113144386D01*
X213191799Y-113159585D01*
X213364815Y-113332601D01*
X213395411Y-113388632D01*
X213398000Y-113412716D01*
X213398000Y-116617313D01*
X213380014Y-116678568D01*
X213374587Y-116686286D01*
X213356058Y-116710433D01*
X213298423Y-116849577D01*
X213298423Y-116849578D01*
X213278764Y-116998900D01*
X213298423Y-117148222D01*
X213356059Y-117287368D01*
X213447745Y-117406855D01*
X213567232Y-117498541D01*
X213706378Y-117556177D01*
X213855700Y-117575836D01*
X214005022Y-117556177D01*
X214144168Y-117498541D01*
X214263655Y-117406855D01*
X214355341Y-117287368D01*
X214412977Y-117148222D01*
X214432636Y-116998900D01*
X214412977Y-116849578D01*
X214355341Y-116710432D01*
X214336812Y-116686285D01*
X214313793Y-116626740D01*
X214313400Y-116617313D01*
X214313400Y-113239700D01*
X214331386Y-113178445D01*
X214379633Y-113136639D01*
X214426700Y-113126400D01*
X214437158Y-113126400D01*
X216725313Y-113126400D01*
X216786568Y-113144386D01*
X216794285Y-113149813D01*
X216818429Y-113168339D01*
X216818432Y-113168341D01*
X216957578Y-113225977D01*
X217106900Y-113245636D01*
X217256222Y-113225977D01*
X217395368Y-113168341D01*
X217406779Y-113159585D01*
X217419515Y-113149813D01*
X217479061Y-113126793D01*
X217488487Y-113126400D01*
X218204384Y-113126400D01*
X218265639Y-113144386D01*
X218284499Y-113159585D01*
X218444815Y-113319901D01*
X218475411Y-113375932D01*
X218478000Y-113400016D01*
X218478000Y-116617313D01*
X218460014Y-116678568D01*
X218454587Y-116686286D01*
X218436058Y-116710433D01*
X218378423Y-116849577D01*
X218378423Y-116849578D01*
X218358764Y-116998900D01*
X218378423Y-117148222D01*
X218436059Y-117287368D01*
X218527745Y-117406855D01*
X218647232Y-117498541D01*
X218786378Y-117556177D01*
X218935700Y-117575836D01*
X219085022Y-117556177D01*
X219224168Y-117498541D01*
X219343655Y-117406855D01*
X219435341Y-117287368D01*
X219492977Y-117148222D01*
X219512636Y-116998900D01*
X219492977Y-116849578D01*
X219435341Y-116710432D01*
X219416812Y-116686285D01*
X219393793Y-116626740D01*
X219393400Y-116617313D01*
X219393400Y-113103242D01*
X219375101Y-113034951D01*
X219362208Y-112986835D01*
X219362206Y-112986830D01*
X219301950Y-112882464D01*
X218721935Y-112302449D01*
X218617566Y-112242192D01*
X218617565Y-112242191D01*
X218501158Y-112211000D01*
X218501157Y-112211000D01*
X217488487Y-112211000D01*
X217427232Y-112193014D01*
X217419515Y-112187587D01*
X217395370Y-112169060D01*
X217395366Y-112169058D01*
X217256222Y-112111423D01*
X217106900Y-112091764D01*
X216957577Y-112111423D01*
X216818433Y-112169058D01*
X216818429Y-112169060D01*
X216794285Y-112187587D01*
X216734739Y-112210607D01*
X216725313Y-112211000D01*
X216021099Y-112211000D01*
X215959844Y-112193014D01*
X215918038Y-112144767D01*
X215908952Y-112081576D01*
X215916421Y-112054347D01*
X215936977Y-112004722D01*
X215956636Y-111855400D01*
X215936977Y-111706078D01*
X215890974Y-111595018D01*
X215884151Y-111531546D01*
X215912727Y-111474458D01*
X215915509Y-111471575D01*
X217236920Y-110150163D01*
X217292949Y-110119569D01*
X217302244Y-110117949D01*
X217332422Y-110113977D01*
X217471568Y-110056341D01*
X217591055Y-109964655D01*
X217682741Y-109845168D01*
X217740377Y-109706022D01*
X217760036Y-109556700D01*
X217740377Y-109407378D01*
X217682741Y-109268232D01*
X217591055Y-109148745D01*
X217471568Y-109057059D01*
X217470358Y-109056558D01*
X217332422Y-108999423D01*
X217183100Y-108979764D01*
X217033777Y-108999423D01*
X216894633Y-109057058D01*
X216775145Y-109148745D01*
X216683458Y-109268233D01*
X216625823Y-109407378D01*
X216625822Y-109407382D01*
X216621849Y-109437556D01*
X216596020Y-109495938D01*
X216589634Y-109502879D01*
X215013449Y-111079064D01*
X214953193Y-111183430D01*
X214953191Y-111183435D01*
X214927729Y-111278462D01*
X214922000Y-111299842D01*
X214922000Y-111473813D01*
X214904014Y-111535068D01*
X214898587Y-111542786D01*
X214880058Y-111566933D01*
X214822630Y-111705578D01*
X214822423Y-111706078D01*
X214802764Y-111855400D01*
X214822423Y-112004722D01*
X214842977Y-112054344D01*
X214849801Y-112117817D01*
X214821224Y-112174905D01*
X214766321Y-112207481D01*
X214738301Y-112211000D01*
X214613415Y-112211000D01*
X214552160Y-112193014D01*
X214533300Y-112177815D01*
X214333885Y-111978399D01*
X214303289Y-111922367D01*
X214300700Y-111898284D01*
X214300700Y-108782000D01*
X219489064Y-108782000D01*
X219508723Y-108931322D01*
X219566359Y-109070468D01*
X219658045Y-109189955D01*
X219777532Y-109281641D01*
X219916678Y-109339277D01*
X219945943Y-109343129D01*
X219946850Y-109343249D01*
X220005234Y-109369075D01*
X220012179Y-109375465D01*
X221480115Y-110843401D01*
X221510711Y-110899432D01*
X221513300Y-110923516D01*
X221513300Y-118625207D01*
X221495314Y-118686462D01*
X221459645Y-118721536D01*
X221302538Y-118818813D01*
X221151266Y-118956716D01*
X221027913Y-119120063D01*
X221027909Y-119120070D01*
X220936673Y-119303295D01*
X220880655Y-119500177D01*
X220861768Y-119704000D01*
X220880655Y-119907822D01*
X220936673Y-120104704D01*
X221027909Y-120287929D01*
X221027913Y-120287936D01*
X221151266Y-120451283D01*
X221302534Y-120589183D01*
X221302536Y-120589184D01*
X221302538Y-120589186D01*
X221476573Y-120696944D01*
X221667444Y-120770888D01*
X221868653Y-120808500D01*
X221868656Y-120808500D01*
X222073344Y-120808500D01*
X222073347Y-120808500D01*
X222274556Y-120770888D01*
X222465427Y-120696944D01*
X222639462Y-120589186D01*
X222790732Y-120451285D01*
X222914088Y-120287935D01*
X223005328Y-120104701D01*
X223061345Y-119907821D01*
X223080232Y-119704000D01*
X223061345Y-119500179D01*
X223005328Y-119303299D01*
X222914088Y-119120065D01*
X222806483Y-118977573D01*
X222790733Y-118956716D01*
X222790726Y-118956710D01*
X222639462Y-118818814D01*
X222639461Y-118818813D01*
X222482355Y-118721536D01*
X222439744Y-118673998D01*
X222428700Y-118625207D01*
X222428700Y-110626742D01*
X222401369Y-110524742D01*
X222401368Y-110524741D01*
X222397508Y-110510335D01*
X222397508Y-110510334D01*
X222337251Y-110405965D01*
X220713286Y-108782000D01*
X223299064Y-108782000D01*
X223318723Y-108931322D01*
X223376359Y-109070468D01*
X223468045Y-109189955D01*
X223587532Y-109281641D01*
X223726678Y-109339277D01*
X223726677Y-109339277D01*
X223756851Y-109343249D01*
X223815235Y-109369075D01*
X223822180Y-109375465D01*
X224020115Y-109573400D01*
X224050711Y-109629431D01*
X224053300Y-109653515D01*
X224053300Y-118625207D01*
X224035314Y-118686462D01*
X223999645Y-118721536D01*
X223842538Y-118818813D01*
X223691266Y-118956716D01*
X223567913Y-119120063D01*
X223567909Y-119120070D01*
X223476673Y-119303295D01*
X223420655Y-119500177D01*
X223401768Y-119704000D01*
X223420655Y-119907822D01*
X223476673Y-120104704D01*
X223567909Y-120287929D01*
X223567913Y-120287936D01*
X223691266Y-120451283D01*
X223842534Y-120589183D01*
X223842536Y-120589184D01*
X223842538Y-120589186D01*
X224016573Y-120696944D01*
X224207444Y-120770888D01*
X224408653Y-120808500D01*
X224408656Y-120808500D01*
X224613344Y-120808500D01*
X224613347Y-120808500D01*
X224814556Y-120770888D01*
X225005427Y-120696944D01*
X225179462Y-120589186D01*
X225330732Y-120451285D01*
X225454088Y-120287935D01*
X225545328Y-120104701D01*
X225601345Y-119907821D01*
X225620232Y-119704000D01*
X225601345Y-119500179D01*
X225545328Y-119303299D01*
X225454088Y-119120065D01*
X225346483Y-118977573D01*
X225330733Y-118956716D01*
X225330726Y-118956710D01*
X225179462Y-118818814D01*
X225179461Y-118818813D01*
X225022355Y-118721536D01*
X224979744Y-118673998D01*
X224968700Y-118625207D01*
X224968700Y-109356743D01*
X224937508Y-109240335D01*
X224937507Y-109240334D01*
X224924286Y-109217433D01*
X224877251Y-109135966D01*
X224792034Y-109050749D01*
X224523285Y-108782000D01*
X225839064Y-108782000D01*
X225858723Y-108931322D01*
X225916359Y-109070468D01*
X226008045Y-109189955D01*
X226127532Y-109281641D01*
X226266678Y-109339277D01*
X226266677Y-109339277D01*
X226296851Y-109343249D01*
X226355235Y-109369075D01*
X226362180Y-109375465D01*
X226560115Y-109573400D01*
X226590711Y-109629431D01*
X226593300Y-109653515D01*
X226593300Y-118625207D01*
X226575314Y-118686462D01*
X226539645Y-118721536D01*
X226382538Y-118818813D01*
X226231266Y-118956716D01*
X226107913Y-119120063D01*
X226107909Y-119120070D01*
X226016673Y-119303295D01*
X225960655Y-119500177D01*
X225941768Y-119704000D01*
X225960655Y-119907822D01*
X226016673Y-120104704D01*
X226107909Y-120287929D01*
X226107913Y-120287936D01*
X226231266Y-120451283D01*
X226382534Y-120589183D01*
X226382536Y-120589184D01*
X226382538Y-120589186D01*
X226556573Y-120696944D01*
X226747444Y-120770888D01*
X226948653Y-120808500D01*
X226948656Y-120808500D01*
X227153344Y-120808500D01*
X227153347Y-120808500D01*
X227354556Y-120770888D01*
X227545427Y-120696944D01*
X227719462Y-120589186D01*
X227870732Y-120451285D01*
X227994088Y-120287935D01*
X228085328Y-120104701D01*
X228141345Y-119907821D01*
X228160232Y-119704000D01*
X228141345Y-119500179D01*
X228085328Y-119303299D01*
X227994088Y-119120065D01*
X227886483Y-118977573D01*
X227870733Y-118956716D01*
X227870726Y-118956710D01*
X227719462Y-118818814D01*
X227719461Y-118818813D01*
X227562355Y-118721536D01*
X227519744Y-118673998D01*
X227508700Y-118625207D01*
X227508700Y-109505900D01*
X231223864Y-109505900D01*
X231243523Y-109655222D01*
X231301159Y-109794368D01*
X231392845Y-109913855D01*
X231512332Y-110005541D01*
X231651478Y-110063177D01*
X231800800Y-110082836D01*
X231950122Y-110063177D01*
X232089268Y-110005541D01*
X232100679Y-109996785D01*
X232113415Y-109987013D01*
X232172961Y-109963993D01*
X232182387Y-109963600D01*
X233342284Y-109963600D01*
X233403539Y-109981586D01*
X233422399Y-109996785D01*
X233607634Y-110182020D01*
X233638230Y-110238051D01*
X233639849Y-110247344D01*
X233643822Y-110277517D01*
X233643823Y-110277522D01*
X233701459Y-110416668D01*
X233719986Y-110440812D01*
X233743007Y-110500358D01*
X233743400Y-110509786D01*
X233743400Y-111479538D01*
X233725414Y-111540793D01*
X233719987Y-111548511D01*
X233704815Y-111568283D01*
X233647180Y-111707427D01*
X233627521Y-111856750D01*
X233647180Y-112006072D01*
X233673221Y-112068942D01*
X233704816Y-112145218D01*
X233723110Y-112169059D01*
X233723343Y-112169362D01*
X233746364Y-112228908D01*
X233746757Y-112238336D01*
X233746757Y-113406226D01*
X233728771Y-113467481D01*
X233713572Y-113486341D01*
X233563078Y-113636834D01*
X233507046Y-113667430D01*
X233497755Y-113669049D01*
X233467582Y-113673022D01*
X233467578Y-113673023D01*
X233328433Y-113730658D01*
X233208945Y-113822345D01*
X233117258Y-113941833D01*
X233059623Y-114080977D01*
X233046801Y-114178366D01*
X233039964Y-114230300D01*
X233059623Y-114379622D01*
X233117259Y-114518768D01*
X233208945Y-114638255D01*
X233328432Y-114729941D01*
X233467578Y-114787577D01*
X233616900Y-114807236D01*
X233766222Y-114787577D01*
X233905368Y-114729941D01*
X234024855Y-114638255D01*
X234116541Y-114518768D01*
X234174177Y-114379622D01*
X234178149Y-114349447D01*
X234203975Y-114291065D01*
X234210352Y-114284132D01*
X234570708Y-113923778D01*
X234630965Y-113819409D01*
X234662157Y-113703001D01*
X234662157Y-113582486D01*
X234662157Y-112238336D01*
X234680143Y-112177081D01*
X234685571Y-112169362D01*
X234685803Y-112169060D01*
X234704098Y-112145218D01*
X234761734Y-112006072D01*
X234781393Y-111856750D01*
X234761734Y-111707428D01*
X234704098Y-111568282D01*
X234682212Y-111539760D01*
X234659193Y-111480215D01*
X234658800Y-111470788D01*
X234658800Y-110509786D01*
X234676786Y-110448531D01*
X234682214Y-110440812D01*
X234700741Y-110416668D01*
X234758377Y-110277522D01*
X234778036Y-110128200D01*
X234758377Y-109978878D01*
X234700741Y-109839732D01*
X234609055Y-109720245D01*
X234489568Y-109628559D01*
X234350422Y-109570923D01*
X234350419Y-109570922D01*
X234350417Y-109570922D01*
X234320244Y-109566949D01*
X234268369Y-109544000D01*
X237789764Y-109544000D01*
X237809423Y-109693322D01*
X237851277Y-109794368D01*
X237867059Y-109832468D01*
X237958745Y-109951955D01*
X238078232Y-110043641D01*
X238217378Y-110101277D01*
X238366700Y-110120936D01*
X238516022Y-110101277D01*
X238655168Y-110043641D01*
X238666579Y-110034885D01*
X238679315Y-110025113D01*
X238738861Y-110002093D01*
X238748287Y-110001700D01*
X239882784Y-110001700D01*
X239944039Y-110019686D01*
X239962899Y-110034885D01*
X240110034Y-110182019D01*
X240140630Y-110238050D01*
X240142249Y-110247343D01*
X240146222Y-110277519D01*
X240146222Y-110277521D01*
X240146223Y-110277522D01*
X240203859Y-110416668D01*
X240222386Y-110440812D01*
X240245407Y-110500358D01*
X240245800Y-110509786D01*
X240245800Y-111479943D01*
X240227814Y-111541198D01*
X240222387Y-111548915D01*
X240206376Y-111569780D01*
X240206376Y-111569781D01*
X240148740Y-111708927D01*
X240129081Y-111858250D01*
X240148740Y-112007572D01*
X240206375Y-112146717D01*
X240222386Y-112167582D01*
X240245407Y-112227127D01*
X240245800Y-112236556D01*
X240245800Y-113765183D01*
X240227814Y-113826438D01*
X240212615Y-113845298D01*
X239582878Y-114475034D01*
X239526847Y-114505630D01*
X239517555Y-114507249D01*
X239487382Y-114511222D01*
X239487378Y-114511223D01*
X239348233Y-114568858D01*
X239228745Y-114660545D01*
X239137058Y-114780033D01*
X239079423Y-114919177D01*
X239079423Y-114919178D01*
X239059764Y-115068500D01*
X239079423Y-115217822D01*
X239137059Y-115356968D01*
X239228745Y-115476455D01*
X239348232Y-115568141D01*
X239487378Y-115625777D01*
X239636700Y-115645436D01*
X239786022Y-115625777D01*
X239925168Y-115568141D01*
X240044655Y-115476455D01*
X240136341Y-115356968D01*
X240193977Y-115217822D01*
X240197949Y-115187647D01*
X240223775Y-115129265D01*
X240230153Y-115122331D01*
X241069751Y-114282735D01*
X241130008Y-114178366D01*
X241161200Y-114061958D01*
X241161200Y-113941443D01*
X241161200Y-112243116D01*
X241179186Y-112181861D01*
X241184608Y-112174150D01*
X241205658Y-112146718D01*
X241263294Y-112007572D01*
X241282953Y-111858250D01*
X241263294Y-111708928D01*
X241205658Y-111569782D01*
X241184612Y-111542354D01*
X241161593Y-111482808D01*
X241161200Y-111473382D01*
X241161200Y-110509786D01*
X241179186Y-110448531D01*
X241184614Y-110440812D01*
X241203141Y-110416668D01*
X241260777Y-110277522D01*
X241280436Y-110128200D01*
X241260777Y-109978878D01*
X241203141Y-109839732D01*
X241111455Y-109720245D01*
X240991968Y-109628559D01*
X240852822Y-109570923D01*
X240852819Y-109570922D01*
X240852820Y-109570922D01*
X240822643Y-109566949D01*
X240764260Y-109541121D01*
X240757319Y-109534734D01*
X240591660Y-109369075D01*
X240400335Y-109177749D01*
X240295966Y-109117492D01*
X240295965Y-109117491D01*
X240179558Y-109086300D01*
X240179557Y-109086300D01*
X238748287Y-109086300D01*
X238687032Y-109068314D01*
X238679315Y-109062887D01*
X238655170Y-109044360D01*
X238655166Y-109044358D01*
X238516022Y-108986723D01*
X238366700Y-108967064D01*
X238217377Y-108986723D01*
X238078233Y-109044358D01*
X237958745Y-109136045D01*
X237867058Y-109255533D01*
X237809423Y-109394677D01*
X237789764Y-109544000D01*
X234268369Y-109544000D01*
X234261861Y-109541121D01*
X234254920Y-109534734D01*
X233859835Y-109139649D01*
X233755466Y-109079392D01*
X233755465Y-109079391D01*
X233639058Y-109048200D01*
X233639057Y-109048200D01*
X232182387Y-109048200D01*
X232121132Y-109030214D01*
X232113415Y-109024787D01*
X232089270Y-109006260D01*
X232089266Y-109006258D01*
X231950122Y-108948623D01*
X231800800Y-108928964D01*
X231651477Y-108948623D01*
X231512333Y-109006258D01*
X231392845Y-109097945D01*
X231301158Y-109217433D01*
X231243523Y-109356577D01*
X231243523Y-109356578D01*
X231223864Y-109505900D01*
X227508700Y-109505900D01*
X227508700Y-109356743D01*
X227477508Y-109240335D01*
X227477507Y-109240334D01*
X227464286Y-109217433D01*
X227417251Y-109135966D01*
X227332034Y-109050749D01*
X227009464Y-108728179D01*
X226978869Y-108672149D01*
X226977249Y-108662851D01*
X226973277Y-108632678D01*
X226973277Y-108632677D01*
X226915641Y-108493532D01*
X226823955Y-108374045D01*
X226704468Y-108282359D01*
X226565322Y-108224723D01*
X226416000Y-108205064D01*
X226266677Y-108224723D01*
X226127533Y-108282358D01*
X226008045Y-108374045D01*
X225916358Y-108493533D01*
X225858723Y-108632677D01*
X225853526Y-108672149D01*
X225839064Y-108782000D01*
X224523285Y-108782000D01*
X224469464Y-108728179D01*
X224438869Y-108672149D01*
X224437249Y-108662851D01*
X224433277Y-108632678D01*
X224433277Y-108632677D01*
X224375641Y-108493532D01*
X224283955Y-108374045D01*
X224164468Y-108282359D01*
X224025322Y-108224723D01*
X223876000Y-108205064D01*
X223726677Y-108224723D01*
X223587533Y-108282358D01*
X223468045Y-108374045D01*
X223376358Y-108493533D01*
X223318723Y-108632677D01*
X223313526Y-108672149D01*
X223299064Y-108782000D01*
X220713286Y-108782000D01*
X220659465Y-108728179D01*
X220628869Y-108672148D01*
X220627249Y-108662850D01*
X220623277Y-108632681D01*
X220623277Y-108632678D01*
X220565641Y-108493532D01*
X220473955Y-108374045D01*
X220354468Y-108282359D01*
X220215322Y-108224723D01*
X220066000Y-108205064D01*
X219916677Y-108224723D01*
X219777533Y-108282358D01*
X219658045Y-108374045D01*
X219566358Y-108493533D01*
X219508723Y-108632677D01*
X219503526Y-108672149D01*
X219489064Y-108782000D01*
X214300700Y-108782000D01*
X214300700Y-108452386D01*
X214318686Y-108391131D01*
X214324114Y-108383412D01*
X214342641Y-108359268D01*
X214400277Y-108220122D01*
X214419936Y-108070800D01*
X214400277Y-107921478D01*
X214342641Y-107782332D01*
X214250955Y-107662845D01*
X214131468Y-107571159D01*
X213992322Y-107513523D01*
X213843000Y-107493864D01*
X213693677Y-107513523D01*
X213554533Y-107571158D01*
X213435045Y-107662845D01*
X213343358Y-107782333D01*
X213285723Y-107921477D01*
X213285723Y-107921478D01*
X213266064Y-108070800D01*
X213285723Y-108220122D01*
X213343359Y-108359268D01*
X213354698Y-108374045D01*
X213361886Y-108383412D01*
X213384907Y-108442958D01*
X213385300Y-108452386D01*
X213385300Y-112097700D01*
X213367314Y-112158955D01*
X213319067Y-112200761D01*
X213272000Y-112211000D01*
X210960687Y-112211000D01*
X210899432Y-112193014D01*
X210891715Y-112187587D01*
X210867570Y-112169060D01*
X210867566Y-112169058D01*
X210728422Y-112111423D01*
X210579100Y-112091764D01*
X210429777Y-112111423D01*
X210290633Y-112169058D01*
X210290629Y-112169060D01*
X210266485Y-112187587D01*
X210206939Y-112210607D01*
X210197513Y-112211000D01*
X209493092Y-112211000D01*
X209431837Y-112193014D01*
X209390031Y-112144767D01*
X209380945Y-112081576D01*
X209388414Y-112054346D01*
X209409177Y-112004222D01*
X209428836Y-111854900D01*
X209409177Y-111705578D01*
X209363174Y-111594518D01*
X209356351Y-111531046D01*
X209384927Y-111473958D01*
X209387709Y-111471075D01*
X210709120Y-110149663D01*
X210765149Y-110119069D01*
X210774444Y-110117449D01*
X210804622Y-110113477D01*
X210943768Y-110055841D01*
X211063255Y-109964155D01*
X211154941Y-109844668D01*
X211212577Y-109705522D01*
X211232236Y-109556200D01*
X211212577Y-109406878D01*
X211154941Y-109267732D01*
X211063255Y-109148245D01*
X210943768Y-109056559D01*
X210929741Y-109050749D01*
X210804622Y-108998923D01*
X210655300Y-108979264D01*
X210505977Y-108998923D01*
X210366833Y-109056558D01*
X210247345Y-109148245D01*
X210155658Y-109267733D01*
X210098023Y-109406878D01*
X210098022Y-109406882D01*
X210094049Y-109437056D01*
X210068220Y-109495438D01*
X210061834Y-109502379D01*
X208485649Y-111078564D01*
X208425393Y-111182930D01*
X208425391Y-111182935D01*
X208399795Y-111278462D01*
X208394200Y-111299342D01*
X208394200Y-111473313D01*
X208376214Y-111534568D01*
X208370787Y-111542286D01*
X208352258Y-111566433D01*
X208294623Y-111705577D01*
X208274964Y-111854900D01*
X208288553Y-111958118D01*
X208278716Y-112021196D01*
X208236338Y-112068942D01*
X208174874Y-112086198D01*
X208113837Y-112067484D01*
X208096107Y-112053021D01*
X207983885Y-111940799D01*
X207953289Y-111884768D01*
X207950700Y-111860684D01*
X207950700Y-108452386D01*
X207968686Y-108391131D01*
X207974114Y-108383412D01*
X207992641Y-108359268D01*
X208050277Y-108220122D01*
X208069936Y-108070800D01*
X208050277Y-107921478D01*
X207992641Y-107782332D01*
X207900955Y-107662845D01*
X207781468Y-107571159D01*
X207642322Y-107513523D01*
X207493000Y-107493864D01*
X207343677Y-107513523D01*
X207204533Y-107571158D01*
X207085045Y-107662845D01*
X206993358Y-107782333D01*
X206935723Y-107921477D01*
X206935723Y-107921478D01*
X206916064Y-108070800D01*
X200508500Y-108070800D01*
X200508500Y-106609300D01*
X200526486Y-106548045D01*
X200574733Y-106506239D01*
X200621800Y-106496000D01*
X248400200Y-106496000D01*
X248461455Y-106513986D01*
G37*
%TD.AperFunction*%
%TD*%
%TA.AperFunction,Conductor*%
%TO.N,GND*%
G36*
X246485707Y-75508743D02*
G01*
X246739749Y-75525394D01*
X246754442Y-75527328D01*
X246876418Y-75551590D01*
X247000512Y-75576274D01*
X247014818Y-75580107D01*
X247218454Y-75649232D01*
X247252386Y-75660751D01*
X247266078Y-75666422D01*
X247491093Y-75777386D01*
X247503928Y-75784797D01*
X247712523Y-75924176D01*
X247724278Y-75933195D01*
X247912910Y-76098622D01*
X247923377Y-76109089D01*
X247962860Y-76154110D01*
X248088801Y-76297718D01*
X248097823Y-76309476D01*
X248237202Y-76518071D01*
X248244613Y-76530906D01*
X248355577Y-76755921D01*
X248361248Y-76769613D01*
X248441890Y-77007175D01*
X248445726Y-77021491D01*
X248494671Y-77267557D01*
X248496605Y-77282249D01*
X248513257Y-77536291D01*
X248513500Y-77543702D01*
X248513500Y-98330900D01*
X248495514Y-98392155D01*
X248447267Y-98433961D01*
X248400200Y-98444200D01*
X200621800Y-98444200D01*
X200560545Y-98426214D01*
X200518739Y-98377967D01*
X200508500Y-98330900D01*
X200508500Y-81451599D01*
X208161768Y-81451599D01*
X208165117Y-81487741D01*
X208165600Y-81498194D01*
X208165600Y-81538600D01*
X208175219Y-81599336D01*
X208176130Y-81606603D01*
X208180654Y-81655416D01*
X208180654Y-81655417D01*
X208186569Y-81676208D01*
X208189497Y-81689480D01*
X208192818Y-81710443D01*
X208192820Y-81710454D01*
X208220262Y-81794912D01*
X208221481Y-81798914D01*
X208236671Y-81852299D01*
X208239372Y-81857723D01*
X208245705Y-81873215D01*
X208246585Y-81875923D01*
X208246585Y-81875924D01*
X208327585Y-82034897D01*
X208327552Y-82034913D01*
X208327752Y-82035277D01*
X208327909Y-82035531D01*
X208353442Y-82069342D01*
X208354687Y-82071023D01*
X208392050Y-82122448D01*
X208427848Y-82171720D01*
X208427854Y-82171726D01*
X208434155Y-82178027D01*
X208444451Y-82189858D01*
X208451266Y-82198883D01*
X208451268Y-82198885D01*
X208491718Y-82235760D01*
X208495503Y-82239375D01*
X208550880Y-82294752D01*
X208550887Y-82294757D01*
X208573124Y-82310914D01*
X208582853Y-82318842D01*
X208600107Y-82334570D01*
X208602538Y-82336786D01*
X208640925Y-82360553D01*
X208647848Y-82365203D01*
X208691644Y-82397023D01*
X208733647Y-82418424D01*
X208741821Y-82423026D01*
X208776573Y-82444544D01*
X208776577Y-82444545D01*
X208776578Y-82444546D01*
X208805987Y-82455939D01*
X208816501Y-82460640D01*
X208846664Y-82476010D01*
X208846668Y-82476012D01*
X208846673Y-82476013D01*
X208846674Y-82476014D01*
X208912726Y-82497475D01*
X208918616Y-82499572D01*
X208967444Y-82518488D01*
X208983665Y-82521520D01*
X208997849Y-82525133D01*
X209012152Y-82529781D01*
X209012160Y-82529782D01*
X209012163Y-82529783D01*
X209046633Y-82535242D01*
X209113471Y-82545828D01*
X209116476Y-82546346D01*
X209168653Y-82556100D01*
X209169406Y-82556100D01*
X209179550Y-82556898D01*
X209179570Y-82556651D01*
X209184002Y-82557000D01*
X209184003Y-82557000D01*
X215672300Y-82557000D01*
X215733555Y-82574986D01*
X215775361Y-82623233D01*
X215785600Y-82670300D01*
X215785600Y-93362295D01*
X215812815Y-93534137D01*
X215812817Y-93534143D01*
X215812818Y-93534148D01*
X215866586Y-93699626D01*
X215945577Y-93854656D01*
X216047848Y-93995420D01*
X217580580Y-95528152D01*
X217721344Y-95630422D01*
X217876374Y-95709414D01*
X218041852Y-95763182D01*
X218041859Y-95763183D01*
X218041862Y-95763184D01*
X218166335Y-95782897D01*
X218213703Y-95790400D01*
X218213704Y-95790400D01*
X218387701Y-95790400D01*
X218490504Y-95774117D01*
X218559549Y-95763182D01*
X218725026Y-95709414D01*
X218880056Y-95630422D01*
X219020820Y-95528152D01*
X219143852Y-95405120D01*
X219246122Y-95264356D01*
X219325114Y-95109326D01*
X219378882Y-94943849D01*
X219406100Y-94771997D01*
X219406100Y-94598003D01*
X219378882Y-94426152D01*
X219325114Y-94260674D01*
X219246122Y-94105644D01*
X219143852Y-93964880D01*
X218029585Y-92850613D01*
X217998989Y-92794582D01*
X217996400Y-92770498D01*
X217996400Y-90160602D01*
X218014386Y-90099347D01*
X218029585Y-90080487D01*
X218826987Y-89283085D01*
X218883018Y-89252489D01*
X218907102Y-89249900D01*
X221885775Y-89249900D01*
X221947030Y-89267886D01*
X221988836Y-89316133D01*
X221997922Y-89379324D01*
X221971401Y-89437396D01*
X221954743Y-89453090D01*
X221950481Y-89456360D01*
X221890934Y-89479378D01*
X221881513Y-89479770D01*
X221362373Y-89479770D01*
X221245965Y-89510961D01*
X221245964Y-89510962D01*
X221215552Y-89528521D01*
X221141596Y-89571218D01*
X221141590Y-89571223D01*
X219863342Y-90849470D01*
X219807311Y-90880066D01*
X219798019Y-90881685D01*
X219767846Y-90885658D01*
X219767842Y-90885659D01*
X219628697Y-90943294D01*
X219509209Y-91034981D01*
X219417522Y-91154469D01*
X219359887Y-91293613D01*
X219340228Y-91442936D01*
X219349479Y-91513204D01*
X219339642Y-91576282D01*
X219297264Y-91624028D01*
X219280506Y-91632667D01*
X219173309Y-91677069D01*
X219173308Y-91677069D01*
X219053819Y-91768758D01*
X218962132Y-91888246D01*
X218904497Y-92027390D01*
X218884838Y-92176713D01*
X218904497Y-92326035D01*
X218951145Y-92438655D01*
X218962133Y-92465181D01*
X219053819Y-92584668D01*
X219173306Y-92676354D01*
X219312452Y-92733990D01*
X219461774Y-92753649D01*
X219611096Y-92733990D01*
X219750242Y-92676354D01*
X219758852Y-92669746D01*
X219774389Y-92657826D01*
X219833935Y-92634806D01*
X219843361Y-92634413D01*
X220983545Y-92634413D01*
X221099953Y-92603221D01*
X221204322Y-92542964D01*
X222316920Y-91430363D01*
X222372949Y-91399769D01*
X222382244Y-91398149D01*
X222412422Y-91394177D01*
X222551568Y-91336541D01*
X222671055Y-91244855D01*
X222762741Y-91125368D01*
X222820377Y-90986222D01*
X222840036Y-90836900D01*
X222820377Y-90687578D01*
X222762741Y-90548432D01*
X222691934Y-90456156D01*
X222668915Y-90396613D01*
X222681741Y-90334074D01*
X222691930Y-90318220D01*
X222762741Y-90225938D01*
X222820377Y-90086792D01*
X222840036Y-89937470D01*
X222820377Y-89788148D01*
X222762741Y-89649002D01*
X222671055Y-89529515D01*
X222571451Y-89453086D01*
X222533805Y-89401528D01*
X222530009Y-89337800D01*
X222561269Y-89282137D01*
X222617661Y-89252210D01*
X222640425Y-89249900D01*
X226000098Y-89249900D01*
X226061353Y-89267886D01*
X226080213Y-89283085D01*
X228071415Y-91274287D01*
X228102011Y-91330318D01*
X228104600Y-91354402D01*
X228104600Y-92600297D01*
X228110004Y-92634413D01*
X228131817Y-92772139D01*
X228131818Y-92772143D01*
X228131819Y-92772148D01*
X228185586Y-92937626D01*
X228264577Y-93092656D01*
X228366848Y-93233420D01*
X228489880Y-93356452D01*
X228630644Y-93458723D01*
X228785674Y-93537714D01*
X228951152Y-93591481D01*
X229123003Y-93618700D01*
X229123006Y-93618700D01*
X229296994Y-93618700D01*
X229296997Y-93618700D01*
X229468848Y-93591481D01*
X229634326Y-93537714D01*
X229789356Y-93458723D01*
X229930120Y-93356452D01*
X230053152Y-93233420D01*
X230155423Y-93092656D01*
X230234414Y-92937626D01*
X230288181Y-92772148D01*
X230315400Y-92600297D01*
X230315400Y-91474744D01*
X230333386Y-91413489D01*
X230381633Y-91371683D01*
X230444824Y-91362597D01*
X230502896Y-91389118D01*
X230521631Y-91411811D01*
X230521938Y-91411576D01*
X230526458Y-91417467D01*
X230526459Y-91417468D01*
X230618145Y-91536955D01*
X230737632Y-91628641D01*
X230876778Y-91686277D01*
X230974153Y-91699096D01*
X231032534Y-91724924D01*
X231067685Y-91778216D01*
X231068445Y-91842052D01*
X231064039Y-91854782D01*
X231053023Y-91881376D01*
X231053023Y-91881378D01*
X231033364Y-92030700D01*
X231053023Y-92180022D01*
X231110659Y-92319168D01*
X231202345Y-92438655D01*
X231321832Y-92530341D01*
X231460978Y-92587977D01*
X231610300Y-92607636D01*
X231759622Y-92587977D01*
X231898768Y-92530341D01*
X232018255Y-92438655D01*
X232109941Y-92319168D01*
X232167577Y-92180022D01*
X232171549Y-92149847D01*
X232197375Y-92091465D01*
X232203753Y-92084531D01*
X233011301Y-91276985D01*
X233067332Y-91246389D01*
X233091416Y-91243800D01*
X234073513Y-91243800D01*
X234134768Y-91261786D01*
X234142485Y-91267213D01*
X234156963Y-91278322D01*
X234166632Y-91285741D01*
X234305778Y-91343377D01*
X234455100Y-91363036D01*
X234604422Y-91343377D01*
X234743568Y-91285741D01*
X234863055Y-91194055D01*
X234886413Y-91163613D01*
X234937971Y-91125966D01*
X235001699Y-91122170D01*
X235057362Y-91153429D01*
X235087289Y-91209821D01*
X235089600Y-91232586D01*
X235089600Y-93203884D01*
X235071614Y-93265139D01*
X235056415Y-93283999D01*
X234552699Y-93787715D01*
X234496668Y-93818311D01*
X234472584Y-93820900D01*
X229721243Y-93820900D01*
X229604835Y-93852091D01*
X229604834Y-93852092D01*
X229500465Y-93912349D01*
X229449666Y-93963149D01*
X228913899Y-94498915D01*
X228857868Y-94529511D01*
X228833784Y-94532100D01*
X223307743Y-94532100D01*
X223191335Y-94563291D01*
X223191334Y-94563292D01*
X223086965Y-94623549D01*
X222239749Y-95470764D01*
X222179493Y-95575130D01*
X222179491Y-95575135D01*
X222156844Y-95659657D01*
X222148300Y-95691543D01*
X222148300Y-95954413D01*
X222130314Y-96015668D01*
X222124889Y-96023381D01*
X222122952Y-96025908D01*
X222106358Y-96047533D01*
X222048723Y-96186677D01*
X222048723Y-96186678D01*
X222029064Y-96336000D01*
X222048723Y-96485322D01*
X222106359Y-96624468D01*
X222198045Y-96743955D01*
X222317532Y-96835641D01*
X222456678Y-96893277D01*
X222606000Y-96912936D01*
X222755322Y-96893277D01*
X222894468Y-96835641D01*
X223013955Y-96743955D01*
X223105641Y-96624468D01*
X223136324Y-96550391D01*
X223176382Y-96500682D01*
X223236955Y-96480521D01*
X223298813Y-96496309D01*
X223342315Y-96543033D01*
X223345673Y-96550387D01*
X223376359Y-96624468D01*
X223468045Y-96743955D01*
X223587532Y-96835641D01*
X223726678Y-96893277D01*
X223876000Y-96912936D01*
X224025322Y-96893277D01*
X224164468Y-96835641D01*
X224283955Y-96743955D01*
X224375641Y-96624468D01*
X224433277Y-96485322D01*
X224452936Y-96336000D01*
X224433277Y-96186678D01*
X224433275Y-96186674D01*
X224433080Y-96185189D01*
X224442917Y-96122111D01*
X224485294Y-96074364D01*
X224545411Y-96057100D01*
X227016589Y-96057100D01*
X227077844Y-96075086D01*
X227119650Y-96123333D01*
X227128920Y-96185189D01*
X227128724Y-96186674D01*
X227128723Y-96186678D01*
X227109064Y-96336000D01*
X227128723Y-96485322D01*
X227186359Y-96624468D01*
X227278045Y-96743955D01*
X227397532Y-96835641D01*
X227536678Y-96893277D01*
X227686000Y-96912936D01*
X227835322Y-96893277D01*
X227974468Y-96835641D01*
X227983078Y-96829033D01*
X227998615Y-96817113D01*
X228058161Y-96794093D01*
X228067587Y-96793700D01*
X229625858Y-96793700D01*
X229742266Y-96762508D01*
X229846635Y-96702251D01*
X230458600Y-96090284D01*
X230514631Y-96059689D01*
X230538715Y-96057100D01*
X238985758Y-96057100D01*
X239102166Y-96025908D01*
X239206535Y-95965651D01*
X240117251Y-95054935D01*
X240177508Y-94950566D01*
X240185865Y-94919374D01*
X240208700Y-94834157D01*
X240208700Y-82530391D01*
X240226686Y-82469136D01*
X240262353Y-82434063D01*
X240419462Y-82336786D01*
X240570732Y-82198885D01*
X240694088Y-82035535D01*
X240785328Y-81852301D01*
X240841345Y-81655421D01*
X240860232Y-81451600D01*
X240841345Y-81247779D01*
X240785328Y-81050899D01*
X240694088Y-80867665D01*
X240586483Y-80725173D01*
X240570733Y-80704316D01*
X240570726Y-80704310D01*
X240526318Y-80663826D01*
X240419465Y-80566416D01*
X240381096Y-80542659D01*
X240245427Y-80458656D01*
X240245423Y-80458654D01*
X240245421Y-80458653D01*
X240054556Y-80384712D01*
X240054545Y-80384710D01*
X239853347Y-80347100D01*
X239648653Y-80347100D01*
X239507857Y-80373419D01*
X239447443Y-80384712D01*
X239256578Y-80458653D01*
X239256575Y-80458655D01*
X239256574Y-80458655D01*
X239256573Y-80458656D01*
X239214380Y-80484781D01*
X239082534Y-80566416D01*
X238931266Y-80704316D01*
X238807913Y-80867663D01*
X238807909Y-80867670D01*
X238716673Y-81050895D01*
X238660655Y-81247777D01*
X238641768Y-81451600D01*
X238660655Y-81655422D01*
X238670350Y-81689497D01*
X238716671Y-81852299D01*
X238716673Y-81852304D01*
X238807909Y-82035529D01*
X238807913Y-82035536D01*
X238931266Y-82198883D01*
X239082536Y-82336785D01*
X239082538Y-82336786D01*
X239239646Y-82434063D01*
X239282256Y-82481599D01*
X239293300Y-82530391D01*
X239293300Y-94537384D01*
X239275314Y-94598639D01*
X239260115Y-94617499D01*
X238769099Y-95108515D01*
X238713068Y-95139111D01*
X238688984Y-95141700D01*
X237179816Y-95141700D01*
X237118561Y-95123714D01*
X237076755Y-95075467D01*
X237067669Y-95012276D01*
X237094190Y-94954204D01*
X237099701Y-94948285D01*
X237275989Y-94771997D01*
X237577251Y-94470735D01*
X237637508Y-94366366D01*
X237645865Y-94335174D01*
X237668700Y-94249957D01*
X237668700Y-82530391D01*
X237686686Y-82469136D01*
X237722353Y-82434063D01*
X237879462Y-82336786D01*
X238030732Y-82198885D01*
X238154088Y-82035535D01*
X238245328Y-81852301D01*
X238301345Y-81655421D01*
X238320232Y-81451600D01*
X238301345Y-81247779D01*
X238245328Y-81050899D01*
X238154088Y-80867665D01*
X238046483Y-80725173D01*
X238030733Y-80704316D01*
X238030726Y-80704310D01*
X237986318Y-80663826D01*
X237879465Y-80566416D01*
X237841096Y-80542659D01*
X237705427Y-80458656D01*
X237705423Y-80458654D01*
X237705421Y-80458653D01*
X237514556Y-80384712D01*
X237514545Y-80384710D01*
X237313347Y-80347100D01*
X237108653Y-80347100D01*
X236967857Y-80373419D01*
X236907443Y-80384712D01*
X236716578Y-80458653D01*
X236716575Y-80458655D01*
X236716574Y-80458655D01*
X236716573Y-80458656D01*
X236674380Y-80484781D01*
X236542534Y-80566416D01*
X236391266Y-80704316D01*
X236267913Y-80867663D01*
X236267909Y-80867670D01*
X236176673Y-81050895D01*
X236120655Y-81247777D01*
X236101768Y-81451600D01*
X236120655Y-81655422D01*
X236130350Y-81689497D01*
X236176671Y-81852299D01*
X236176673Y-81852304D01*
X236267909Y-82035529D01*
X236267913Y-82035536D01*
X236391266Y-82198883D01*
X236542536Y-82336785D01*
X236542538Y-82336786D01*
X236699646Y-82434063D01*
X236742256Y-82481599D01*
X236753300Y-82530391D01*
X236753300Y-93953184D01*
X236735314Y-94014439D01*
X236720115Y-94033299D01*
X236254499Y-94498915D01*
X236198468Y-94529511D01*
X236174384Y-94532100D01*
X235376416Y-94532100D01*
X235315161Y-94514114D01*
X235273355Y-94465867D01*
X235264269Y-94402676D01*
X235290790Y-94344604D01*
X235296301Y-94338685D01*
X235601687Y-94033299D01*
X235913551Y-93721435D01*
X235973808Y-93617066D01*
X236005000Y-93500657D01*
X236005000Y-93380142D01*
X236005000Y-88693843D01*
X235973808Y-88577435D01*
X235948339Y-88533322D01*
X235913551Y-88473065D01*
X235913550Y-88473064D01*
X235913549Y-88473062D01*
X235161885Y-87721398D01*
X235131289Y-87665367D01*
X235128700Y-87641283D01*
X235128700Y-82530391D01*
X235146686Y-82469136D01*
X235182353Y-82434063D01*
X235339462Y-82336786D01*
X235490732Y-82198885D01*
X235614088Y-82035535D01*
X235705328Y-81852301D01*
X235761345Y-81655421D01*
X235780232Y-81451600D01*
X235761345Y-81247779D01*
X235705328Y-81050899D01*
X235614088Y-80867665D01*
X235506483Y-80725173D01*
X235490733Y-80704316D01*
X235490726Y-80704310D01*
X235446318Y-80663826D01*
X235339465Y-80566416D01*
X235301096Y-80542659D01*
X235165427Y-80458656D01*
X235165423Y-80458654D01*
X235165421Y-80458653D01*
X234974556Y-80384712D01*
X234974545Y-80384710D01*
X234773347Y-80347100D01*
X234568653Y-80347100D01*
X234427857Y-80373419D01*
X234367443Y-80384712D01*
X234176578Y-80458653D01*
X234176575Y-80458655D01*
X234176574Y-80458655D01*
X234176573Y-80458656D01*
X234134380Y-80484781D01*
X234002534Y-80566416D01*
X233851266Y-80704316D01*
X233727913Y-80867663D01*
X233727909Y-80867670D01*
X233636673Y-81050895D01*
X233580655Y-81247777D01*
X233561768Y-81451600D01*
X233580655Y-81655422D01*
X233590350Y-81689497D01*
X233636671Y-81852299D01*
X233636673Y-81852304D01*
X233727909Y-82035529D01*
X233727913Y-82035536D01*
X233851266Y-82198883D01*
X234002536Y-82336785D01*
X234002538Y-82336786D01*
X234159646Y-82434063D01*
X234202256Y-82481599D01*
X234213300Y-82530391D01*
X234213300Y-87938057D01*
X234244491Y-88054465D01*
X234244492Y-88054466D01*
X234304749Y-88158835D01*
X235056415Y-88910501D01*
X235087011Y-88966532D01*
X235089600Y-88990616D01*
X235089600Y-89322465D01*
X235071614Y-89383720D01*
X235023367Y-89425526D01*
X234960176Y-89434612D01*
X234902104Y-89408091D01*
X234886414Y-89391438D01*
X234824957Y-89311347D01*
X234824955Y-89311346D01*
X234824955Y-89311345D01*
X234705468Y-89219659D01*
X234566322Y-89162023D01*
X234417000Y-89142364D01*
X234267677Y-89162023D01*
X234128533Y-89219658D01*
X234128529Y-89219660D01*
X234104385Y-89238187D01*
X234044839Y-89261207D01*
X234035413Y-89261600D01*
X232375543Y-89261600D01*
X232259137Y-89292791D01*
X232259130Y-89292793D01*
X232154764Y-89353049D01*
X230972278Y-90535534D01*
X230916247Y-90566130D01*
X230906955Y-90567749D01*
X230876782Y-90571722D01*
X230876778Y-90571723D01*
X230737633Y-90629358D01*
X230737632Y-90629359D01*
X230618145Y-90721045D01*
X230575871Y-90776138D01*
X230521938Y-90846424D01*
X230520855Y-90845593D01*
X230480616Y-90883960D01*
X230417929Y-90896042D01*
X230358662Y-90872314D01*
X230321631Y-90820311D01*
X230315400Y-90783255D01*
X230315400Y-90762605D01*
X230315400Y-90762603D01*
X230288181Y-90590752D01*
X230287456Y-90588522D01*
X230234414Y-90425274D01*
X230210938Y-90379200D01*
X230155423Y-90270244D01*
X230053152Y-90129480D01*
X229930120Y-90006448D01*
X227225020Y-87301348D01*
X227225012Y-87301342D01*
X227209153Y-87289819D01*
X227209153Y-87289820D01*
X227084256Y-87199077D01*
X226929226Y-87120086D01*
X226763748Y-87066318D01*
X226763744Y-87066317D01*
X226763743Y-87066317D01*
X226763737Y-87066315D01*
X226611114Y-87042143D01*
X226591897Y-87039100D01*
X226591896Y-87039100D01*
X218907102Y-87039100D01*
X218845847Y-87021114D01*
X218826987Y-87005915D01*
X218029585Y-86208513D01*
X217998989Y-86152482D01*
X217996400Y-86128398D01*
X217996400Y-82670300D01*
X218014386Y-82609045D01*
X218062633Y-82567239D01*
X218109700Y-82557000D01*
X219517998Y-82557000D01*
X219522430Y-82556651D01*
X219522449Y-82556898D01*
X219532594Y-82556100D01*
X219533348Y-82556100D01*
X219557787Y-82551531D01*
X219585477Y-82546354D01*
X219588515Y-82545829D01*
X219689848Y-82529781D01*
X219704154Y-82525132D01*
X219718336Y-82521519D01*
X219734556Y-82518488D01*
X219783412Y-82499560D01*
X219789276Y-82497474D01*
X219855326Y-82476014D01*
X219885515Y-82460630D01*
X219896001Y-82455942D01*
X219925427Y-82444544D01*
X219960158Y-82423039D01*
X219968361Y-82418419D01*
X220010356Y-82397023D01*
X220054163Y-82365193D01*
X220061072Y-82360554D01*
X220099462Y-82336786D01*
X220119151Y-82318836D01*
X220128856Y-82310926D01*
X220151120Y-82294752D01*
X220206514Y-82239356D01*
X220210281Y-82235760D01*
X220250731Y-82198886D01*
X220250732Y-82198885D01*
X220257539Y-82189869D01*
X220267844Y-82178027D01*
X220274152Y-82171720D01*
X220347339Y-82070984D01*
X220348491Y-82069429D01*
X220374088Y-82035535D01*
X220374091Y-82035529D01*
X220374426Y-82034989D01*
X220374380Y-82034966D01*
X220386633Y-82010916D01*
X220455414Y-81875926D01*
X220456295Y-81873215D01*
X220462629Y-81857719D01*
X220465328Y-81852301D01*
X220480540Y-81798831D01*
X220481711Y-81794987D01*
X220509181Y-81710448D01*
X220512502Y-81689480D01*
X220515425Y-81676224D01*
X220521345Y-81655421D01*
X220525869Y-81606588D01*
X220526781Y-81599327D01*
X220536400Y-81538597D01*
X220536400Y-81498194D01*
X220536883Y-81487741D01*
X220536963Y-81486870D01*
X220540232Y-81451600D01*
X231021768Y-81451600D01*
X231040655Y-81655422D01*
X231050350Y-81689497D01*
X231096671Y-81852299D01*
X231096673Y-81852304D01*
X231187909Y-82035529D01*
X231187913Y-82035536D01*
X231311266Y-82198883D01*
X231462534Y-82336783D01*
X231462536Y-82336784D01*
X231462538Y-82336786D01*
X231636573Y-82444544D01*
X231827444Y-82518488D01*
X232028653Y-82556100D01*
X232028656Y-82556100D01*
X232233344Y-82556100D01*
X232233347Y-82556100D01*
X232434556Y-82518488D01*
X232625427Y-82444544D01*
X232799462Y-82336786D01*
X232950732Y-82198885D01*
X233074088Y-82035535D01*
X233165328Y-81852301D01*
X233221345Y-81655421D01*
X233240232Y-81451600D01*
X233221345Y-81247779D01*
X233165328Y-81050899D01*
X233074088Y-80867665D01*
X232966483Y-80725173D01*
X232950733Y-80704316D01*
X232950726Y-80704310D01*
X232906318Y-80663826D01*
X232799465Y-80566416D01*
X232761096Y-80542659D01*
X232625427Y-80458656D01*
X232625423Y-80458654D01*
X232625421Y-80458653D01*
X232434556Y-80384712D01*
X232434545Y-80384710D01*
X232233347Y-80347100D01*
X232028653Y-80347100D01*
X231887857Y-80373419D01*
X231827443Y-80384712D01*
X231636578Y-80458653D01*
X231636575Y-80458655D01*
X231636574Y-80458655D01*
X231636573Y-80458656D01*
X231594380Y-80484781D01*
X231462534Y-80566416D01*
X231311266Y-80704316D01*
X231187913Y-80867663D01*
X231187909Y-80867670D01*
X231096673Y-81050895D01*
X231040655Y-81247777D01*
X231021768Y-81451600D01*
X220540232Y-81451600D01*
X220536883Y-81415457D01*
X220536400Y-81405004D01*
X220536400Y-81364605D01*
X220526781Y-81303874D01*
X220525869Y-81296605D01*
X220521345Y-81247779D01*
X220515430Y-81226991D01*
X220512501Y-81213721D01*
X220509181Y-81192752D01*
X220481720Y-81108238D01*
X220480511Y-81104265D01*
X220465329Y-81050901D01*
X220465316Y-81050876D01*
X220462627Y-81045477D01*
X220456290Y-81029972D01*
X220455414Y-81027274D01*
X220422870Y-80963403D01*
X220374406Y-80868284D01*
X220374438Y-80868267D01*
X220374256Y-80867937D01*
X220374086Y-80867662D01*
X220348557Y-80833857D01*
X220347309Y-80832173D01*
X220274152Y-80731480D01*
X220267845Y-80725173D01*
X220257545Y-80713337D01*
X220250730Y-80704312D01*
X220250728Y-80704310D01*
X220210280Y-80667437D01*
X220206516Y-80663844D01*
X220151120Y-80608448D01*
X220151113Y-80608442D01*
X220128881Y-80592290D01*
X220119148Y-80584360D01*
X220117088Y-80582482D01*
X220099462Y-80566414D01*
X220061096Y-80542659D01*
X220061090Y-80542655D01*
X220054140Y-80537988D01*
X220037732Y-80526067D01*
X220010356Y-80506177D01*
X219968363Y-80484780D01*
X219960158Y-80480160D01*
X219925430Y-80458658D01*
X219925427Y-80458656D01*
X219925425Y-80458655D01*
X219925421Y-80458653D01*
X219896016Y-80447262D01*
X219885509Y-80442564D01*
X219855330Y-80427187D01*
X219855324Y-80427185D01*
X219789298Y-80405731D01*
X219783385Y-80403627D01*
X219734556Y-80384712D01*
X219734548Y-80384710D01*
X219718336Y-80381679D01*
X219704152Y-80378066D01*
X219689845Y-80373418D01*
X219588542Y-80357373D01*
X219585449Y-80356839D01*
X219558524Y-80351806D01*
X219533347Y-80347100D01*
X219533346Y-80347100D01*
X219532594Y-80347100D01*
X219522449Y-80346301D01*
X219522430Y-80346549D01*
X219517998Y-80346200D01*
X219517997Y-80346200D01*
X209184003Y-80346200D01*
X209184002Y-80346200D01*
X209179570Y-80346549D01*
X209179550Y-80346301D01*
X209169406Y-80347100D01*
X209168653Y-80347100D01*
X209143820Y-80351741D01*
X209116550Y-80356839D01*
X209113458Y-80357373D01*
X209012152Y-80373418D01*
X208997846Y-80378066D01*
X208983669Y-80381678D01*
X208967446Y-80384711D01*
X208967444Y-80384711D01*
X208918611Y-80403628D01*
X208912701Y-80405731D01*
X208846675Y-80427185D01*
X208846674Y-80427185D01*
X208816486Y-80442566D01*
X208805984Y-80447261D01*
X208776575Y-80458654D01*
X208741848Y-80480156D01*
X208733645Y-80484775D01*
X208691642Y-80506177D01*
X208647851Y-80537993D01*
X208640903Y-80542659D01*
X208602541Y-80566412D01*
X208602530Y-80566420D01*
X208582855Y-80584356D01*
X208573127Y-80592284D01*
X208550882Y-80608446D01*
X208495501Y-80663826D01*
X208491719Y-80667437D01*
X208451269Y-80704313D01*
X208451268Y-80704314D01*
X208444454Y-80713337D01*
X208434167Y-80725160D01*
X208427846Y-80731482D01*
X208394123Y-80777897D01*
X208354690Y-80832173D01*
X208353475Y-80833813D01*
X208327911Y-80867665D01*
X208327805Y-80867836D01*
X208327532Y-80868339D01*
X208327559Y-80868353D01*
X208246589Y-81027265D01*
X208246584Y-81027277D01*
X208245701Y-81029997D01*
X208239376Y-81045467D01*
X208236673Y-81050894D01*
X208221479Y-81104292D01*
X208220260Y-81108292D01*
X208192819Y-81192750D01*
X208192818Y-81192755D01*
X208189497Y-81213719D01*
X208186568Y-81226996D01*
X208180654Y-81247778D01*
X208176130Y-81296596D01*
X208175219Y-81303862D01*
X208165600Y-81364598D01*
X208165600Y-81405004D01*
X208165117Y-81415457D01*
X208161768Y-81451599D01*
X200508500Y-81451599D01*
X200508500Y-78911600D01*
X208161768Y-78911600D01*
X208180655Y-79115422D01*
X208236673Y-79312304D01*
X208327909Y-79495529D01*
X208327913Y-79495536D01*
X208451266Y-79658883D01*
X208602534Y-79796783D01*
X208602536Y-79796784D01*
X208602538Y-79796786D01*
X208776573Y-79904544D01*
X208967444Y-79978488D01*
X209168653Y-80016100D01*
X209168656Y-80016100D01*
X209373344Y-80016100D01*
X209373347Y-80016100D01*
X209574556Y-79978488D01*
X209765427Y-79904544D01*
X209939462Y-79796786D01*
X210090732Y-79658885D01*
X210214088Y-79495535D01*
X210305328Y-79312301D01*
X210361345Y-79115421D01*
X210380232Y-78911600D01*
X210701768Y-78911600D01*
X210720655Y-79115422D01*
X210776673Y-79312304D01*
X210867909Y-79495529D01*
X210867913Y-79495536D01*
X210991266Y-79658883D01*
X211142534Y-79796783D01*
X211142536Y-79796784D01*
X211142538Y-79796786D01*
X211316573Y-79904544D01*
X211507444Y-79978488D01*
X211708653Y-80016100D01*
X211708656Y-80016100D01*
X211913344Y-80016100D01*
X211913347Y-80016100D01*
X212114556Y-79978488D01*
X212305427Y-79904544D01*
X212479462Y-79796786D01*
X212630732Y-79658885D01*
X212754088Y-79495535D01*
X212845328Y-79312301D01*
X212901345Y-79115421D01*
X212920232Y-78911600D01*
X213241768Y-78911600D01*
X213260655Y-79115422D01*
X213316673Y-79312304D01*
X213407909Y-79495529D01*
X213407913Y-79495536D01*
X213531266Y-79658883D01*
X213682534Y-79796783D01*
X213682536Y-79796784D01*
X213682538Y-79796786D01*
X213856573Y-79904544D01*
X214047444Y-79978488D01*
X214248653Y-80016100D01*
X214248656Y-80016100D01*
X214453344Y-80016100D01*
X214453347Y-80016100D01*
X214654556Y-79978488D01*
X214845427Y-79904544D01*
X215019462Y-79796786D01*
X215170732Y-79658885D01*
X215294088Y-79495535D01*
X215385328Y-79312301D01*
X215441345Y-79115421D01*
X215460232Y-78911600D01*
X215781768Y-78911600D01*
X215800655Y-79115422D01*
X215856673Y-79312304D01*
X215947909Y-79495529D01*
X215947913Y-79495536D01*
X216071266Y-79658883D01*
X216222534Y-79796783D01*
X216222536Y-79796784D01*
X216222538Y-79796786D01*
X216396573Y-79904544D01*
X216587444Y-79978488D01*
X216788653Y-80016100D01*
X216788656Y-80016100D01*
X216993344Y-80016100D01*
X216993347Y-80016100D01*
X217194556Y-79978488D01*
X217385427Y-79904544D01*
X217559462Y-79796786D01*
X217710732Y-79658885D01*
X217834088Y-79495535D01*
X217925328Y-79312301D01*
X217981345Y-79115421D01*
X218000232Y-78911600D01*
X218321768Y-78911600D01*
X218340655Y-79115422D01*
X218396673Y-79312304D01*
X218487909Y-79495529D01*
X218487913Y-79495536D01*
X218611266Y-79658883D01*
X218762534Y-79796783D01*
X218762536Y-79796784D01*
X218762538Y-79796786D01*
X218936573Y-79904544D01*
X219127444Y-79978488D01*
X219328653Y-80016100D01*
X219328656Y-80016100D01*
X219533344Y-80016100D01*
X219533347Y-80016100D01*
X219734556Y-79978488D01*
X219925427Y-79904544D01*
X220099462Y-79796786D01*
X220250732Y-79658885D01*
X220374088Y-79495535D01*
X220465328Y-79312301D01*
X220521345Y-79115421D01*
X220540232Y-78911600D01*
X220861768Y-78911600D01*
X220880655Y-79115422D01*
X220936673Y-79312304D01*
X221027909Y-79495529D01*
X221027913Y-79495536D01*
X221151266Y-79658883D01*
X221302534Y-79796783D01*
X221302536Y-79796784D01*
X221302538Y-79796786D01*
X221476573Y-79904544D01*
X221667444Y-79978488D01*
X221868653Y-80016100D01*
X221868656Y-80016100D01*
X222073344Y-80016100D01*
X222073347Y-80016100D01*
X222274556Y-79978488D01*
X222465427Y-79904544D01*
X222639462Y-79796786D01*
X222790732Y-79658885D01*
X222914088Y-79495535D01*
X223005328Y-79312301D01*
X223061345Y-79115421D01*
X223080232Y-78911600D01*
X223401768Y-78911600D01*
X223420655Y-79115422D01*
X223476673Y-79312304D01*
X223567909Y-79495529D01*
X223567913Y-79495536D01*
X223691266Y-79658883D01*
X223842534Y-79796783D01*
X223842536Y-79796784D01*
X223842538Y-79796786D01*
X224016573Y-79904544D01*
X224207444Y-79978488D01*
X224408653Y-80016100D01*
X224408656Y-80016100D01*
X224613344Y-80016100D01*
X224613347Y-80016100D01*
X224814556Y-79978488D01*
X225005427Y-79904544D01*
X225179462Y-79796786D01*
X225330732Y-79658885D01*
X225454088Y-79495535D01*
X225545328Y-79312301D01*
X225601345Y-79115421D01*
X225620232Y-78911600D01*
X225941768Y-78911600D01*
X225960655Y-79115422D01*
X226016673Y-79312304D01*
X226107909Y-79495529D01*
X226107913Y-79495536D01*
X226231266Y-79658883D01*
X226382534Y-79796783D01*
X226382536Y-79796784D01*
X226382538Y-79796786D01*
X226556573Y-79904544D01*
X226747444Y-79978488D01*
X226948653Y-80016100D01*
X226948656Y-80016100D01*
X227153344Y-80016100D01*
X227153347Y-80016100D01*
X227354556Y-79978488D01*
X227545427Y-79904544D01*
X227719462Y-79796786D01*
X227870732Y-79658885D01*
X227994088Y-79495535D01*
X228085328Y-79312301D01*
X228141345Y-79115421D01*
X228160232Y-78911600D01*
X228481768Y-78911600D01*
X228500655Y-79115422D01*
X228556673Y-79312304D01*
X228647909Y-79495529D01*
X228647913Y-79495536D01*
X228771266Y-79658883D01*
X228922534Y-79796783D01*
X228922536Y-79796784D01*
X228922538Y-79796786D01*
X229096573Y-79904544D01*
X229287444Y-79978488D01*
X229488653Y-80016100D01*
X229488656Y-80016100D01*
X229693344Y-80016100D01*
X229693347Y-80016100D01*
X229894556Y-79978488D01*
X230085427Y-79904544D01*
X230259462Y-79796786D01*
X230410732Y-79658885D01*
X230534088Y-79495535D01*
X230625328Y-79312301D01*
X230681345Y-79115421D01*
X230700232Y-78911600D01*
X231021768Y-78911600D01*
X231040655Y-79115422D01*
X231096673Y-79312304D01*
X231187909Y-79495529D01*
X231187913Y-79495536D01*
X231311266Y-79658883D01*
X231462534Y-79796783D01*
X231462536Y-79796784D01*
X231462538Y-79796786D01*
X231636573Y-79904544D01*
X231827444Y-79978488D01*
X232028653Y-80016100D01*
X232028656Y-80016100D01*
X232233344Y-80016100D01*
X232233347Y-80016100D01*
X232434556Y-79978488D01*
X232625427Y-79904544D01*
X232799462Y-79796786D01*
X232950732Y-79658885D01*
X233074088Y-79495535D01*
X233165328Y-79312301D01*
X233221345Y-79115421D01*
X233240232Y-78911600D01*
X233561768Y-78911600D01*
X233580655Y-79115422D01*
X233636673Y-79312304D01*
X233727909Y-79495529D01*
X233727913Y-79495536D01*
X233851266Y-79658883D01*
X234002534Y-79796783D01*
X234002536Y-79796784D01*
X234002538Y-79796786D01*
X234176573Y-79904544D01*
X234367444Y-79978488D01*
X234568653Y-80016100D01*
X234568656Y-80016100D01*
X234773344Y-80016100D01*
X234773347Y-80016100D01*
X234974556Y-79978488D01*
X235165427Y-79904544D01*
X235339462Y-79796786D01*
X235490732Y-79658885D01*
X235614088Y-79495535D01*
X235705328Y-79312301D01*
X235761345Y-79115421D01*
X235780232Y-78911600D01*
X236101768Y-78911600D01*
X236120655Y-79115422D01*
X236176673Y-79312304D01*
X236267909Y-79495529D01*
X236267913Y-79495536D01*
X236391266Y-79658883D01*
X236542534Y-79796783D01*
X236542536Y-79796784D01*
X236542538Y-79796786D01*
X236716573Y-79904544D01*
X236907444Y-79978488D01*
X237108653Y-80016100D01*
X237108656Y-80016100D01*
X237313344Y-80016100D01*
X237313347Y-80016100D01*
X237514556Y-79978488D01*
X237705427Y-79904544D01*
X237879462Y-79796786D01*
X238030732Y-79658885D01*
X238105518Y-79559852D01*
X238646500Y-79559852D01*
X238652960Y-79619942D01*
X238703658Y-79755867D01*
X238703661Y-79755872D01*
X238790595Y-79872003D01*
X238790596Y-79872004D01*
X238906727Y-79958938D01*
X238906730Y-79958939D01*
X238906733Y-79958942D01*
X239042658Y-80009640D01*
X239102745Y-80016100D01*
X240399254Y-80016099D01*
X240459342Y-80009640D01*
X240595267Y-79958942D01*
X240711404Y-79872004D01*
X240798342Y-79755867D01*
X240849040Y-79619942D01*
X240855500Y-79559855D01*
X240855499Y-78263346D01*
X240849040Y-78203258D01*
X240798342Y-78067333D01*
X240767712Y-78026416D01*
X240711404Y-77951196D01*
X240711403Y-77951195D01*
X240595272Y-77864261D01*
X240595267Y-77864258D01*
X240459343Y-77813560D01*
X240447324Y-77812268D01*
X240399255Y-77807100D01*
X240399251Y-77807100D01*
X239102747Y-77807100D01*
X239042657Y-77813560D01*
X238906732Y-77864258D01*
X238906727Y-77864261D01*
X238790596Y-77951195D01*
X238790595Y-77951196D01*
X238703661Y-78067327D01*
X238703658Y-78067332D01*
X238652960Y-78203256D01*
X238646500Y-78263348D01*
X238646500Y-79559852D01*
X238105518Y-79559852D01*
X238154088Y-79495535D01*
X238245328Y-79312301D01*
X238301345Y-79115421D01*
X238320232Y-78911600D01*
X238301345Y-78707779D01*
X238245328Y-78510899D01*
X238154088Y-78327665D01*
X238030732Y-78164315D01*
X237924347Y-78067332D01*
X237879465Y-78026416D01*
X237879462Y-78026414D01*
X237705427Y-77918656D01*
X237705423Y-77918654D01*
X237705421Y-77918653D01*
X237514556Y-77844712D01*
X237313347Y-77807100D01*
X237108653Y-77807100D01*
X236957746Y-77835309D01*
X236907443Y-77844712D01*
X236716578Y-77918653D01*
X236716575Y-77918655D01*
X236542534Y-78026416D01*
X236391266Y-78164316D01*
X236267913Y-78327663D01*
X236267909Y-78327670D01*
X236176673Y-78510895D01*
X236120655Y-78707777D01*
X236101768Y-78911600D01*
X235780232Y-78911600D01*
X235761345Y-78707779D01*
X235705328Y-78510899D01*
X235614088Y-78327665D01*
X235490732Y-78164315D01*
X235384347Y-78067332D01*
X235339465Y-78026416D01*
X235339462Y-78026414D01*
X235165427Y-77918656D01*
X235165423Y-77918654D01*
X235165421Y-77918653D01*
X234974556Y-77844712D01*
X234773347Y-77807100D01*
X234568653Y-77807100D01*
X234417746Y-77835309D01*
X234367443Y-77844712D01*
X234176578Y-77918653D01*
X234176575Y-77918655D01*
X234002534Y-78026416D01*
X233851266Y-78164316D01*
X233727913Y-78327663D01*
X233727909Y-78327670D01*
X233636673Y-78510895D01*
X233580655Y-78707777D01*
X233561768Y-78911600D01*
X233240232Y-78911600D01*
X233221345Y-78707779D01*
X233165328Y-78510899D01*
X233074088Y-78327665D01*
X232950732Y-78164315D01*
X232844347Y-78067332D01*
X232799465Y-78026416D01*
X232799462Y-78026414D01*
X232625427Y-77918656D01*
X232625423Y-77918654D01*
X232625421Y-77918653D01*
X232434556Y-77844712D01*
X232233347Y-77807100D01*
X232028653Y-77807100D01*
X231877746Y-77835309D01*
X231827443Y-77844712D01*
X231636578Y-77918653D01*
X231636575Y-77918655D01*
X231462534Y-78026416D01*
X231311266Y-78164316D01*
X231187913Y-78327663D01*
X231187909Y-78327670D01*
X231096673Y-78510895D01*
X231040655Y-78707777D01*
X231021768Y-78911600D01*
X230700232Y-78911600D01*
X230681345Y-78707779D01*
X230625328Y-78510899D01*
X230534088Y-78327665D01*
X230410732Y-78164315D01*
X230304347Y-78067332D01*
X230259465Y-78026416D01*
X230259462Y-78026414D01*
X230085427Y-77918656D01*
X230085423Y-77918654D01*
X230085421Y-77918653D01*
X229894556Y-77844712D01*
X229693347Y-77807100D01*
X229488653Y-77807100D01*
X229337746Y-77835309D01*
X229287443Y-77844712D01*
X229096578Y-77918653D01*
X229096575Y-77918655D01*
X228922534Y-78026416D01*
X228771266Y-78164316D01*
X228647913Y-78327663D01*
X228647909Y-78327670D01*
X228556673Y-78510895D01*
X228500655Y-78707777D01*
X228481768Y-78911600D01*
X228160232Y-78911600D01*
X228141345Y-78707779D01*
X228085328Y-78510899D01*
X227994088Y-78327665D01*
X227870732Y-78164315D01*
X227764347Y-78067332D01*
X227719465Y-78026416D01*
X227719462Y-78026414D01*
X227545427Y-77918656D01*
X227545423Y-77918654D01*
X227545421Y-77918653D01*
X227354556Y-77844712D01*
X227153347Y-77807100D01*
X226948653Y-77807100D01*
X226797746Y-77835309D01*
X226747443Y-77844712D01*
X226556578Y-77918653D01*
X226556575Y-77918655D01*
X226382534Y-78026416D01*
X226231266Y-78164316D01*
X226107913Y-78327663D01*
X226107909Y-78327670D01*
X226016673Y-78510895D01*
X225960655Y-78707777D01*
X225941768Y-78911600D01*
X225620232Y-78911600D01*
X225601345Y-78707779D01*
X225545328Y-78510899D01*
X225454088Y-78327665D01*
X225330732Y-78164315D01*
X225224347Y-78067332D01*
X225179465Y-78026416D01*
X225179462Y-78026414D01*
X225005427Y-77918656D01*
X225005423Y-77918654D01*
X225005421Y-77918653D01*
X224814556Y-77844712D01*
X224613347Y-77807100D01*
X224408653Y-77807100D01*
X224257746Y-77835309D01*
X224207443Y-77844712D01*
X224016578Y-77918653D01*
X224016575Y-77918655D01*
X223842534Y-78026416D01*
X223691266Y-78164316D01*
X223567913Y-78327663D01*
X223567909Y-78327670D01*
X223476673Y-78510895D01*
X223420655Y-78707777D01*
X223401768Y-78911600D01*
X223080232Y-78911600D01*
X223061345Y-78707779D01*
X223005328Y-78510899D01*
X222914088Y-78327665D01*
X222790732Y-78164315D01*
X222684347Y-78067332D01*
X222639465Y-78026416D01*
X222639462Y-78026414D01*
X222465427Y-77918656D01*
X222465423Y-77918654D01*
X222465421Y-77918653D01*
X222274556Y-77844712D01*
X222073347Y-77807100D01*
X221868653Y-77807100D01*
X221717746Y-77835309D01*
X221667443Y-77844712D01*
X221476578Y-77918653D01*
X221476575Y-77918655D01*
X221302534Y-78026416D01*
X221151266Y-78164316D01*
X221027913Y-78327663D01*
X221027909Y-78327670D01*
X220936673Y-78510895D01*
X220880655Y-78707777D01*
X220861768Y-78911600D01*
X220540232Y-78911600D01*
X220521345Y-78707779D01*
X220465328Y-78510899D01*
X220374088Y-78327665D01*
X220250732Y-78164315D01*
X220144347Y-78067332D01*
X220099465Y-78026416D01*
X220099462Y-78026414D01*
X219925427Y-77918656D01*
X219925423Y-77918654D01*
X219925421Y-77918653D01*
X219734556Y-77844712D01*
X219533347Y-77807100D01*
X219328653Y-77807100D01*
X219177746Y-77835309D01*
X219127443Y-77844712D01*
X218936578Y-77918653D01*
X218936575Y-77918655D01*
X218762534Y-78026416D01*
X218611266Y-78164316D01*
X218487913Y-78327663D01*
X218487909Y-78327670D01*
X218396673Y-78510895D01*
X218340655Y-78707777D01*
X218321768Y-78911600D01*
X218000232Y-78911600D01*
X217981345Y-78707779D01*
X217925328Y-78510899D01*
X217834088Y-78327665D01*
X217710732Y-78164315D01*
X217604347Y-78067332D01*
X217559465Y-78026416D01*
X217559462Y-78026414D01*
X217385427Y-77918656D01*
X217385423Y-77918654D01*
X217385421Y-77918653D01*
X217194556Y-77844712D01*
X216993347Y-77807100D01*
X216788653Y-77807100D01*
X216637746Y-77835309D01*
X216587443Y-77844712D01*
X216396578Y-77918653D01*
X216396575Y-77918655D01*
X216222534Y-78026416D01*
X216071266Y-78164316D01*
X215947913Y-78327663D01*
X215947909Y-78327670D01*
X215856673Y-78510895D01*
X215800655Y-78707777D01*
X215781768Y-78911600D01*
X215460232Y-78911600D01*
X215441345Y-78707779D01*
X215385328Y-78510899D01*
X215294088Y-78327665D01*
X215170732Y-78164315D01*
X215064347Y-78067332D01*
X215019465Y-78026416D01*
X215019462Y-78026414D01*
X214845427Y-77918656D01*
X214845423Y-77918654D01*
X214845421Y-77918653D01*
X214654556Y-77844712D01*
X214453347Y-77807100D01*
X214248653Y-77807100D01*
X214097746Y-77835309D01*
X214047443Y-77844712D01*
X213856578Y-77918653D01*
X213856575Y-77918655D01*
X213682534Y-78026416D01*
X213531266Y-78164316D01*
X213407913Y-78327663D01*
X213407909Y-78327670D01*
X213316673Y-78510895D01*
X213260655Y-78707777D01*
X213241768Y-78911600D01*
X212920232Y-78911600D01*
X212901345Y-78707779D01*
X212845328Y-78510899D01*
X212754088Y-78327665D01*
X212630732Y-78164315D01*
X212524347Y-78067332D01*
X212479465Y-78026416D01*
X212479462Y-78026414D01*
X212305427Y-77918656D01*
X212305423Y-77918654D01*
X212305421Y-77918653D01*
X212114556Y-77844712D01*
X211913347Y-77807100D01*
X211708653Y-77807100D01*
X211557746Y-77835309D01*
X211507443Y-77844712D01*
X211316578Y-77918653D01*
X211316575Y-77918655D01*
X211142534Y-78026416D01*
X210991266Y-78164316D01*
X210867913Y-78327663D01*
X210867909Y-78327670D01*
X210776673Y-78510895D01*
X210720655Y-78707777D01*
X210701768Y-78911600D01*
X210380232Y-78911600D01*
X210361345Y-78707779D01*
X210305328Y-78510899D01*
X210214088Y-78327665D01*
X210090732Y-78164315D01*
X209984347Y-78067332D01*
X209939465Y-78026416D01*
X209939462Y-78026414D01*
X209765427Y-77918656D01*
X209765423Y-77918654D01*
X209765421Y-77918653D01*
X209574556Y-77844712D01*
X209373347Y-77807100D01*
X209168653Y-77807100D01*
X209017746Y-77835309D01*
X208967443Y-77844712D01*
X208776578Y-77918653D01*
X208776575Y-77918655D01*
X208602534Y-78026416D01*
X208451266Y-78164316D01*
X208327913Y-78327663D01*
X208327909Y-78327670D01*
X208236673Y-78510895D01*
X208180655Y-78707777D01*
X208161768Y-78911600D01*
X200508500Y-78911600D01*
X200508500Y-77543702D01*
X200508743Y-77536292D01*
X200525394Y-77282250D01*
X200527328Y-77267557D01*
X200568125Y-77062455D01*
X200576275Y-77021483D01*
X200580106Y-77007185D01*
X200660752Y-76769609D01*
X200666422Y-76755921D01*
X200669388Y-76749907D01*
X200777390Y-76530898D01*
X200784792Y-76518078D01*
X200924183Y-76309466D01*
X200933189Y-76297728D01*
X201098629Y-76109081D01*
X201109081Y-76098629D01*
X201297728Y-75933189D01*
X201309466Y-75924183D01*
X201518078Y-75784792D01*
X201530898Y-75777390D01*
X201755925Y-75666420D01*
X201769609Y-75660752D01*
X202007185Y-75580106D01*
X202021483Y-75576275D01*
X202222865Y-75536217D01*
X202267557Y-75527328D01*
X202282249Y-75525394D01*
X202536293Y-75508743D01*
X202543703Y-75508500D01*
X202606945Y-75508500D01*
X246415055Y-75508500D01*
X246478297Y-75508500D01*
X246485707Y-75508743D01*
G37*
%TD.AperFunction*%
%TD*%
M02*
