M48
; DRILL file {KiCad 8.0.0} date 2024-03-05T00:43:52-0800
; FORMAT={-:-/ absolute / inch / decimal}
; #@! TF.CreationDate,2024-03-05T00:43:52-08:00
; #@! TF.GenerationSoftware,Kicad,Pcbnew,8.0.0
; #@! TF.FileFunction,Plated,1,2,PTH
FMAT,2
INCH
; #@! TA.AperFunction,Plated,PTH,ViaDrill
T1C0.0150
; #@! TA.AperFunction,Plated,PTH,ComponentDrill
T2C0.0197
; #@! TA.AperFunction,Plated,PTH,ComponentDrill
T3C0.0394
; #@! TA.AperFunction,Plated,PTH,ComponentDrill
T4C0.1260
%
G90
G05
T1
X8.169Y-4.2548
X8.2225Y-4.4037
X8.2905Y-4.4358
X8.2935Y-4.3132
X8.3745Y-3.7363
X8.419Y-4.2548
X8.4195Y-4.6063
X8.46Y-3.7363
X8.4795Y-4.4038
X8.5475Y-4.4358
X8.5505Y-4.3133
X8.5945Y-3.7278
X8.603Y-3.8348
X8.6195Y-4.6063
X8.6402Y-3.629
X8.656Y-4.5528
X8.6582Y-3.6001
X8.664Y-4.2828
X8.714Y-3.7248
X8.714Y-3.7928
X8.7505Y-3.5408
X8.7505Y-3.5763
X8.764Y-3.7928
X8.774Y-4.3278
X8.774Y-4.5528
X8.814Y-3.7928
X8.814Y-4.2828
X8.874Y-4.5528
X8.8915Y-4.3278
X8.914Y-4.2828
X8.9286Y-3.7073
X8.964Y-3.7928
X9.024Y-3.6423
X9.081Y-3.7928
X9.0955Y-3.5878
X9.1185Y-3.6233
X9.126Y-4.3113
X9.1975Y-4.4973
X9.2205Y-4.3358
X9.2206Y-4.4038
X9.229Y-3.5323
X9.2305Y-3.5743
X9.2425Y-3.6663
X9.3065Y-3.6663
X9.3845Y-4.3128
X9.4345Y-4.5303
X9.4765Y-4.3358
X9.4766Y-4.4039
T2
X7.9765Y-3.6776
X7.9765Y-4.6619
X8.0042Y-3.6108
X8.0042Y-3.7444
X8.0042Y-4.5951
X8.0042Y-4.7287
X8.071Y-3.5831
X8.071Y-3.7721
X8.071Y-4.5674
X8.071Y-4.7564
X8.1378Y-3.6108
X8.1378Y-3.7444
X8.1378Y-4.5951
X8.1378Y-4.7287
X8.1655Y-3.6776
X8.1655Y-4.6619
X9.5125Y-3.6778
X9.5125Y-4.662
X9.5402Y-3.6109
X9.5402Y-3.7446
X9.5402Y-4.5952
X9.5402Y-4.7288
X9.607Y-3.5833
X9.607Y-3.7722
X9.607Y-4.5675
X9.607Y-4.7565
X9.6738Y-3.6109
X9.6738Y-3.7446
X9.6738Y-4.5952
X9.6738Y-4.7288
X9.7015Y-3.6778
X9.7015Y-4.662
T3
X8.239Y-3.1068
X8.239Y-3.2068
X8.339Y-3.1068
X8.339Y-3.2068
X8.339Y-4.7128
X8.339Y-4.8128
X8.439Y-3.1068
X8.439Y-3.2068
X8.439Y-4.7128
X8.439Y-4.8128
X8.539Y-3.1068
X8.539Y-3.2068
X8.539Y-4.7128
X8.539Y-4.8128
X8.639Y-3.1068
X8.639Y-3.2068
X8.639Y-4.7128
X8.639Y-4.8128
X8.739Y-3.1068
X8.739Y-3.2068
X8.739Y-4.7128
X8.739Y-4.8128
X8.839Y-3.1068
X8.839Y-3.2068
X8.839Y-4.7128
X8.839Y-4.8128
X8.939Y-3.1068
X8.939Y-3.2068
X8.939Y-4.7128
X8.939Y-4.8128
X9.039Y-3.1068
X9.039Y-3.2068
X9.039Y-4.7128
X9.039Y-4.8128
X9.139Y-3.1068
X9.139Y-3.2068
X9.139Y-4.7128
X9.139Y-4.8128
X9.239Y-3.1068
X9.239Y-3.2068
X9.239Y-4.7128
X9.239Y-4.8128
X9.339Y-3.1068
X9.339Y-3.2068
X9.339Y-4.7128
X9.339Y-4.8128
X9.439Y-3.1068
X9.439Y-3.2068
T4
X8.071Y-3.6776
X8.071Y-4.6619
X9.607Y-3.6778
X9.607Y-4.662
M30
