%TF.GenerationSoftware,KiCad,Pcbnew,8.0.1-rc1*%
%TF.CreationDate,2024-04-23T21:38:59-07:00*%
%TF.ProjectId,DSS-SSR4E,4453532d-5353-4523-9445-2e6b69636164,rev?*%
%TF.SameCoordinates,Original*%
%TF.FileFunction,Soldermask,Bot*%
%TF.FilePolarity,Negative*%
%FSLAX46Y46*%
G04 Gerber Fmt 4.6, Leading zero omitted, Abs format (unit mm)*
G04 Created by KiCad (PCBNEW 8.0.1-rc1) date 2024-04-23 21:38:59*
%MOMM*%
%LPD*%
G01*
G04 APERTURE LIST*
G04 Aperture macros list*
%AMRoundRect*
0 Rectangle with rounded corners*
0 $1 Rounding radius*
0 $2 $3 $4 $5 $6 $7 $8 $9 X,Y pos of 4 corners*
0 Add a 4 corners polygon primitive as box body*
4,1,4,$2,$3,$4,$5,$6,$7,$8,$9,$2,$3,0*
0 Add four circle primitives for the rounded corners*
1,1,$1+$1,$2,$3*
1,1,$1+$1,$4,$5*
1,1,$1+$1,$6,$7*
1,1,$1+$1,$8,$9*
0 Add four rect primitives between the rounded corners*
20,1,$1+$1,$2,$3,$4,$5,0*
20,1,$1+$1,$4,$5,$6,$7,0*
20,1,$1+$1,$6,$7,$8,$9,0*
20,1,$1+$1,$8,$9,$2,$3,0*%
G04 Aperture macros list end*
%ADD10C,0.800000*%
%ADD11C,6.400000*%
%ADD12RoundRect,0.250000X-0.600000X0.600000X-0.600000X-0.600000X0.600000X-0.600000X0.600000X0.600000X0*%
%ADD13C,1.700000*%
%ADD14R,1.700000X1.700000*%
%ADD15O,1.700000X1.700000*%
G04 APERTURE END LIST*
D10*
%TO.C,H2*%
X244018200Y-91015000D03*
X245715256Y-91717944D03*
X242321144Y-91717944D03*
X246418200Y-93415000D03*
D11*
X244018200Y-93415000D03*
D10*
X241618200Y-93415000D03*
X245715256Y-95112056D03*
X242321144Y-95112056D03*
X244018200Y-95815000D03*
X244018200Y-116015000D03*
X245715256Y-116717944D03*
X242321144Y-116717944D03*
X246418200Y-118415000D03*
D11*
X244018200Y-118415000D03*
D10*
X241618200Y-118415000D03*
X245715256Y-120112056D03*
X242321144Y-120112056D03*
X244018200Y-120815000D03*
%TD*%
%TO.C,H1*%
X205003800Y-91011800D03*
X206700856Y-91714744D03*
X203306744Y-91714744D03*
X207403800Y-93411800D03*
D11*
X205003800Y-93411800D03*
D10*
X202603800Y-93411800D03*
X206700856Y-95108856D03*
X203306744Y-95108856D03*
X205003800Y-95811800D03*
X205003800Y-116011800D03*
X206700856Y-116714744D03*
X203306744Y-116714744D03*
X207403800Y-118411800D03*
D11*
X205003800Y-118411800D03*
D10*
X202603800Y-118411800D03*
X206700856Y-120108856D03*
X203306744Y-120108856D03*
X205003800Y-120811800D03*
%TD*%
D12*
%TO.C,J1*%
X239751000Y-78911600D03*
D13*
X239751000Y-81451600D03*
X237211000Y-78911600D03*
X237211000Y-81451600D03*
X234671000Y-78911600D03*
X234671000Y-81451600D03*
X232131000Y-78911600D03*
X232131000Y-81451600D03*
X229591000Y-78911600D03*
X229591000Y-81451600D03*
X227051000Y-78911600D03*
X227051000Y-81451600D03*
X224511000Y-78911600D03*
X224511000Y-81451600D03*
X221971000Y-78911600D03*
X221971000Y-81451600D03*
X219431000Y-78911600D03*
X219431000Y-81451600D03*
X216891000Y-78911600D03*
X216891000Y-81451600D03*
X214351000Y-78911600D03*
X214351000Y-81451600D03*
X211811000Y-78911600D03*
X211811000Y-81451600D03*
X209271000Y-78911600D03*
X209271000Y-81451600D03*
%TD*%
D14*
%TO.C,J2*%
X211811000Y-119704000D03*
D15*
X211811000Y-122244000D03*
X214351000Y-119704000D03*
X214351000Y-122244000D03*
X216891000Y-119704000D03*
X216891000Y-122244000D03*
X219431000Y-119704000D03*
X219431000Y-122244000D03*
X221971000Y-119704000D03*
X221971000Y-122244000D03*
X224511000Y-119704000D03*
X224511000Y-122244000D03*
X227051000Y-119704000D03*
X227051000Y-122244000D03*
X229591000Y-119704000D03*
X229591000Y-122244000D03*
X232131000Y-119704000D03*
X232131000Y-122244000D03*
X234671000Y-119704000D03*
X234671000Y-122244000D03*
X237211000Y-119704000D03*
X237211000Y-122244000D03*
%TD*%
M02*
