%TF.GenerationSoftware,KiCad,Pcbnew,8.0.1-rc1*%
%TF.CreationDate,2024-04-23T21:38:59-07:00*%
%TF.ProjectId,DSS-SSR4E,4453532d-5353-4523-9445-2e6b69636164,rev?*%
%TF.SameCoordinates,Original*%
%TF.FileFunction,Paste,Top*%
%TF.FilePolarity,Positive*%
%FSLAX46Y46*%
G04 Gerber Fmt 4.6, Leading zero omitted, Abs format (unit mm)*
G04 Created by KiCad (PCBNEW 8.0.1-rc1) date 2024-04-23 21:38:59*
%MOMM*%
%LPD*%
G01*
G04 APERTURE LIST*
G04 Aperture macros list*
%AMRoundRect*
0 Rectangle with rounded corners*
0 $1 Rounding radius*
0 $2 $3 $4 $5 $6 $7 $8 $9 X,Y pos of 4 corners*
0 Add a 4 corners polygon primitive as box body*
4,1,4,$2,$3,$4,$5,$6,$7,$8,$9,$2,$3,0*
0 Add four circle primitives for the rounded corners*
1,1,$1+$1,$2,$3*
1,1,$1+$1,$4,$5*
1,1,$1+$1,$6,$7*
1,1,$1+$1,$8,$9*
0 Add four rect primitives between the rounded corners*
20,1,$1+$1,$2,$3,$4,$5,0*
20,1,$1+$1,$4,$5,$6,$7,0*
20,1,$1+$1,$6,$7,$8,$9,0*
20,1,$1+$1,$8,$9,$2,$3,0*%
G04 Aperture macros list end*
%ADD10RoundRect,0.150000X-0.150000X0.587500X-0.150000X-0.587500X0.150000X-0.587500X0.150000X0.587500X0*%
%ADD11RoundRect,0.225000X0.250000X-0.225000X0.250000X0.225000X-0.250000X0.225000X-0.250000X-0.225000X0*%
%ADD12RoundRect,0.200000X0.275000X-0.200000X0.275000X0.200000X-0.275000X0.200000X-0.275000X-0.200000X0*%
%ADD13RoundRect,0.200000X-0.275000X0.200000X-0.275000X-0.200000X0.275000X-0.200000X0.275000X0.200000X0*%
%ADD14RoundRect,0.030600X0.224400X-0.806900X0.224400X0.806900X-0.224400X0.806900X-0.224400X-0.806900X0*%
%ADD15R,0.700000X0.510000*%
%ADD16RoundRect,0.218750X-0.256250X0.218750X-0.256250X-0.218750X0.256250X-0.218750X0.256250X0.218750X0*%
%ADD17RoundRect,0.218750X0.256250X-0.218750X0.256250X0.218750X-0.256250X0.218750X-0.256250X-0.218750X0*%
%ADD18RoundRect,0.225000X-0.250000X0.225000X-0.250000X-0.225000X0.250000X-0.225000X0.250000X0.225000X0*%
%ADD19RoundRect,0.100000X-0.100000X0.637500X-0.100000X-0.637500X0.100000X-0.637500X0.100000X0.637500X0*%
%ADD20R,0.760000X1.700000*%
G04 APERTURE END LIST*
D10*
%TO.C,D3*%
X214818400Y-109063700D03*
X212918400Y-109063700D03*
X213868400Y-110938700D03*
%TD*%
D11*
%TO.C,C12*%
X225273000Y-113494000D03*
X225273000Y-111944000D03*
%TD*%
D12*
%TO.C,R1*%
X202133600Y-79558800D03*
X202133600Y-77908800D03*
%TD*%
D13*
%TO.C,R4*%
X226809700Y-111894000D03*
X226809700Y-113544000D03*
%TD*%
D11*
%TO.C,C7*%
X209855200Y-110319000D03*
X209855200Y-108769000D03*
%TD*%
D14*
%TO.C,U2*%
X220066000Y-107335000D03*
X221336000Y-107335000D03*
X222606000Y-107335000D03*
X223876000Y-107335000D03*
X225146000Y-107335000D03*
X226416000Y-107335000D03*
X227686000Y-107335000D03*
X228956000Y-107335000D03*
X228956000Y-97610000D03*
X227686000Y-97610000D03*
X226416000Y-97610000D03*
X225146000Y-97610000D03*
X223876000Y-97610000D03*
X222606000Y-97610000D03*
X221336000Y-97610000D03*
X220066000Y-97610000D03*
%TD*%
D13*
%TO.C,R10*%
X217907000Y-108719000D03*
X217907000Y-110369000D03*
%TD*%
%TO.C,R8*%
X239166800Y-111855900D03*
X239166800Y-113505900D03*
%TD*%
D11*
%TO.C,C4*%
X229210000Y-95587000D03*
X229210000Y-94037000D03*
%TD*%
D15*
%TO.C,Q4*%
X238371000Y-116971000D03*
X238371000Y-116021000D03*
X238371000Y-115071000D03*
X236051000Y-115071000D03*
X236051000Y-116021000D03*
X236051000Y-116971000D03*
%TD*%
%TO.C,Q2*%
X215723110Y-115100049D03*
X215723110Y-116050049D03*
X215723110Y-117000049D03*
X218043110Y-117000049D03*
X218043110Y-116050049D03*
X218043110Y-115100049D03*
%TD*%
D11*
%TO.C,C2*%
X216383000Y-95587000D03*
X216383000Y-94037000D03*
%TD*%
D13*
%TO.C,R11*%
X231115000Y-108719000D03*
X231115000Y-110369000D03*
%TD*%
%TO.C,R2*%
X220688300Y-111894000D03*
X220688300Y-113544000D03*
%TD*%
D10*
%TO.C,D5*%
X242606000Y-109063700D03*
X240706000Y-109063700D03*
X241656000Y-110938700D03*
%TD*%
D11*
%TO.C,C6*%
X238100000Y-95587000D03*
X238100000Y-94037000D03*
%TD*%
D10*
%TO.C,D4*%
X236103600Y-109063700D03*
X234203600Y-109063700D03*
X235153600Y-110938700D03*
%TD*%
D11*
%TO.C,C11*%
X222212300Y-113494000D03*
X222212300Y-111944000D03*
%TD*%
D16*
%TO.C,D1*%
X202133600Y-82213500D03*
X202133600Y-83788500D03*
%TD*%
D11*
%TO.C,C5*%
X232639000Y-95587000D03*
X232639000Y-94037000D03*
%TD*%
D17*
%TO.C,D6*%
X211379200Y-113506500D03*
X211379200Y-111931500D03*
%TD*%
D18*
%TO.C,C3*%
X219812000Y-94037000D03*
X219812000Y-95587000D03*
%TD*%
D19*
%TO.C,U1*%
X227436000Y-87377500D03*
X226786000Y-87377500D03*
X226136000Y-87377500D03*
X225486000Y-87377500D03*
X224836000Y-87377500D03*
X224186000Y-87377500D03*
X223536000Y-87377500D03*
X222886000Y-87377500D03*
X222236000Y-87377500D03*
X221586000Y-87377500D03*
X221586000Y-93102500D03*
X222236000Y-93102500D03*
X222886000Y-93102500D03*
X223536000Y-93102500D03*
X224186000Y-93102500D03*
X224836000Y-93102500D03*
X225486000Y-93102500D03*
X226136000Y-93102500D03*
X226786000Y-93102500D03*
X227436000Y-93102500D03*
%TD*%
D20*
%TO.C,TR1*%
X216383000Y-98072500D03*
X215113000Y-98072500D03*
X213843000Y-98072500D03*
X212573000Y-98072500D03*
X211303000Y-98072500D03*
X210033000Y-98072500D03*
X208763000Y-98072500D03*
X207493000Y-98072500D03*
X207493000Y-106872500D03*
X208763000Y-106872500D03*
X210033000Y-106872500D03*
X211303000Y-106872500D03*
X212573000Y-106872500D03*
X213843000Y-106872500D03*
X215113000Y-106872500D03*
X216383000Y-106872500D03*
%TD*%
D13*
%TO.C,R12*%
X237642800Y-108719000D03*
X237642800Y-110369000D03*
%TD*%
D11*
%TO.C,C8*%
X216383000Y-110319000D03*
X216383000Y-108769000D03*
%TD*%
D17*
%TO.C,D9*%
X237642800Y-113506500D03*
X237642800Y-111931500D03*
%TD*%
D10*
%TO.C,D2*%
X208316000Y-109063700D03*
X206416000Y-109063700D03*
X207366000Y-110938700D03*
%TD*%
D17*
%TO.C,D8*%
X231115000Y-113506500D03*
X231115000Y-111931500D03*
%TD*%
%TO.C,D7*%
X217907000Y-113506500D03*
X217907000Y-111931500D03*
%TD*%
D15*
%TO.C,Q3*%
X233291000Y-116971000D03*
X233291000Y-116021000D03*
X233291000Y-115071000D03*
X230971000Y-115071000D03*
X230971000Y-116021000D03*
X230971000Y-116971000D03*
%TD*%
D13*
%TO.C,R7*%
X232639000Y-111855900D03*
X232639000Y-113505900D03*
%TD*%
D15*
%TO.C,Q1*%
X210643110Y-115100049D03*
X210643110Y-116050049D03*
X210643110Y-117000049D03*
X212963110Y-117000049D03*
X212963110Y-116050049D03*
X212963110Y-115100049D03*
%TD*%
D11*
%TO.C,C9*%
X232639000Y-110319000D03*
X232639000Y-108769000D03*
%TD*%
%TO.C,C1*%
X210922000Y-95587000D03*
X210922000Y-94037000D03*
%TD*%
D13*
%TO.C,R5*%
X209855200Y-111855900D03*
X209855200Y-113505900D03*
%TD*%
%TO.C,R6*%
X216383000Y-111855900D03*
X216383000Y-113505900D03*
%TD*%
%TO.C,R3*%
X223749000Y-111894000D03*
X223749000Y-113544000D03*
%TD*%
D11*
%TO.C,C10*%
X239166800Y-110319000D03*
X239166800Y-108769000D03*
%TD*%
%TO.C,C13*%
X228333700Y-113494000D03*
X228333700Y-111944000D03*
%TD*%
D13*
%TO.C,R9*%
X211379200Y-108719000D03*
X211379200Y-110369000D03*
%TD*%
D20*
%TO.C,TR2*%
X241529000Y-98072500D03*
X240259000Y-98072500D03*
X238989000Y-98072500D03*
X237719000Y-98072500D03*
X236449000Y-98072500D03*
X235179000Y-98072500D03*
X233909000Y-98072500D03*
X232639000Y-98072500D03*
X232639000Y-106872500D03*
X233909000Y-106872500D03*
X235179000Y-106872500D03*
X236449000Y-106872500D03*
X237719000Y-106872500D03*
X238989000Y-106872500D03*
X240259000Y-106872500D03*
X241529000Y-106872500D03*
%TD*%
M02*
